<?xml version="1.0" standalone="no"?>
<!DOCTYPE svg PUBLIC "-//W3C//DTD SVG 20010904//EN"
 "http://www.w3.org/TR/2001/REC-SVG-20010904/DTD/svg10.dtd">
<svg version="1.0" xmlns="http://www.w3.org/2000/svg"
 width="700.000000pt" height="700.000000pt" viewBox="0 0 700.000000 700.000000"
 preserveAspectRatio="xMidYMid meet">
<metadata>
Created by potrace 1.14, written by Peter Selinger 2001-2017
</metadata>
<g transform="translate(0.000000,700.000000) scale(0.100000,-0.100000)"
fill="#000000" stroke="none">
<path d="M2670 6997 c-3 -3 -25 -8 -50 -11 -136 -16 -452 -141 -702 -277 -162
-88 -463 -280 -498 -319 -3 -3 -38 -32 -79 -64 -40 -32 -89 -73 -109 -90 -52
-45 -301 -294 -342 -341 -354 -411 -593 -846 -745 -1360 -15 -49 -28 -96 -30
-105 -2 -8 -10 -45 -19 -81 -19 -83 -24 -109 -37 -184 -5 -33 -12 -71 -14 -85
-3 -14 -7 -50 -10 -80 -4 -30 -8 -62 -10 -70 -18 -69 -26 -554 -12 -710 35
-383 82 -621 179 -900 203 -584 560 -1107 1032 -1514 164 -141 366 -292 471
-352 11 -7 74 -43 140 -81 216 -125 534 -265 730 -320 147 -42 175 -46 305
-47 126 -1 139 1 191 25 72 34 102 75 107 148 5 76 -25 152 -98 249 -70 93
-112 133 -295 282 -139 114 -452 414 -490 470 -11 16 -21 27 -24 25 -2 -3 -9
4 -15 14 -6 10 -39 55 -74 100 -58 74 -131 186 -184 280 -153 270 -232 433
-288 598 -53 153 -111 370 -135 508 -13 73 -35 219 -40 265 -3 30 -8 78 -11
105 -14 135 -19 481 -9 635 6 96 15 205 19 226 2 11 7 46 10 79 4 33 9 67 11
75 2 8 6 33 10 55 64 433 248 938 494 1355 91 154 261 386 401 546 68 78 165
188 190 214 27 29 68 78 179 210 108 130 171 261 165 348 -3 59 -43 122 -94
151 -33 18 -63 25 -129 28 -47 3 -88 3 -91 0z"/>
<path d="M4308 6575 c-2 -1 -43 -5 -93 -9 -182 -14 -380 -55 -578 -120 -146
-48 -158 -53 -317 -129 -359 -171 -707 -464 -952 -802 -302 -415 -505 -946
-424 -1103 45 -86 114 -60 330 122 77 66 143 122 146 125 3 3 28 24 55 46 28
22 57 45 65 52 189 153 503 329 745 418 98 36 323 98 398 109 20 3 52 8 70 11
156 25 398 25 576 -1 798 -115 1374 -675 1607 -1564 28 -106 52 -217 59 -270
3 -19 7 -45 10 -58 2 -13 7 -53 11 -90 3 -37 8 -80 10 -97 6 -45 6 -526 0
-635 -3 -52 -8 -129 -11 -170 -4 -41 -8 -102 -10 -135 -2 -33 -7 -98 -10 -145
-16 -210 -12 -254 30 -341 10 -20 31 -45 49 -55 137 -82 293 81 529 552 171
342 286 695 351 1074 2 14 7 41 10 60 13 77 16 99 23 190 14 170 7 579 -13
700 -3 19 -7 44 -8 55 -21 136 -73 343 -116 470 -190 551 -522 1011 -954 1319
-294 211 -683 357 -1061 401 -27 3 -67 8 -88 11 -40 6 -433 14 -439 9z"/>
<path d="M3930 5079 c-30 -4 -75 -9 -100 -12 -76 -10 -210 -48 -294 -84 -281
-120 -526 -367 -671 -676 -40 -85 -90 -231 -101 -295 -3 -15 -10 -47 -15 -72
-16 -71 -24 -157 -23 -261 0 -143 33 -214 103 -225 55 -9 80 11 160 131 107
158 229 293 346 382 28 20 55 41 60 46 72 59 237 133 371 168 94 23 278 31
378 16 280 -44 498 -159 652 -345 70 -86 127 -184 199 -347 98 -222 113 -245
164 -245 72 0 132 99 159 262 9 58 8 307 -2 388 -36 292 -164 576 -351 781
-183 200 -452 345 -715 385 -63 9 -254 11 -320 3z"/>
<path d="M2319 4277 c-198 -102 -396 -482 -449 -862 -6 -44 -13 -93 -16 -110
-10 -56 -12 -410 -3 -480 5 -38 11 -90 14 -115 17 -136 62 -333 107 -465 156
-455 423 -816 783 -1059 173 -117 490 -242 715 -281 164 -29 493 -40 620 -21
19 3 55 8 80 11 307 40 635 180 925 394 33 24 112 96 175 160 169 171 278 334
374 561 40 96 109 294 121 348 3 12 7 30 9 40 21 82 46 221 52 287 35 389 -52
762 -196 833 -88 43 -142 -9 -200 -193 -82 -262 -173 -449 -299 -620 -61 -82
-189 -215 -266 -278 -178 -144 -418 -250 -640 -282 -22 -3 -51 -8 -65 -10 -32
-6 -269 -7 -295 -2 -11 3 -42 8 -68 11 -539 79 -1015 468 -1211 990 -34 89
-72 235 -81 311 -5 33 -9 69 -11 80 -7 44 -6 264 1 324 4 36 17 123 29 195 20
117 21 135 9 172 -32 93 -109 115 -214 61z"/>
<path d="M3928 3985 c-53 -17 -98 -64 -98 -102 0 -26 11 -38 135 -152 51 -47
95 -95 145 -157 8 -11 21 -30 28 -44 7 -14 20 -38 30 -55 61 -99 98 -310 78
-440 -3 -22 -8 -53 -10 -70 -3 -16 -10 -50 -16 -75 -37 -153 -71 -217 -196
-375 -39 -49 -76 -99 -81 -110 -24 -50 31 -107 105 -108 109 -2 322 84 423
170 121 104 200 213 259 358 55 134 74 230 73 370 0 367 -210 655 -563 775
-85 29 -244 36 -312 15z"/>
</g>
</svg>
