<svg width="1786" height="728" viewBox="0 0 1786 728" fill="none" xmlns="http://www.w3.org/2000/svg">
<path d="M1617.27 625C1618.34 626.856 1618.34 629.144 1617.27 631L1595.73 668.301C1594.66 670.158 1592.68 671.301 1590.54 671.301L1547.46 671.301C1545.32 671.301 1543.34 670.158 1542.27 668.301L1520.73 631C1519.66 629.144 1519.66 626.856 1520.73 625L1542.27 587.699C1543.34 585.842 1545.32 584.699 1547.46 584.699L1590.54 584.699C1592.68 584.699 1594.66 585.842 1595.73 587.699L1617.27 625Z" fill="white" fill-opacity="0.2"/>
<path d="M1784.27 625C1785.34 626.856 1785.34 629.144 1784.27 631L1762.73 668.301C1761.66 670.158 1759.68 671.301 1757.54 671.301L1714.46 671.301C1712.32 671.301 1710.34 670.158 1709.27 668.301L1687.73 631C1686.66 629.144 1686.66 626.856 1687.73 625L1709.27 587.699C1710.34 585.842 1712.32 584.699 1714.46 584.699L1757.54 584.699C1759.68 584.699 1761.66 585.842 1762.73 587.699L1784.27 625Z" fill="white" fill-opacity="0.2"/>
<path d="M1701.27 675C1702.34 676.856 1702.34 679.144 1701.27 681L1679.73 718.301C1678.66 720.158 1676.68 721.301 1674.54 721.301L1631.46 721.301C1629.32 721.301 1627.34 720.158 1626.27 718.301L1604.73 681C1603.66 679.144 1603.66 676.856 1604.73 675L1626.27 637.699C1627.34 635.842 1629.32 634.699 1631.46 634.699L1674.54 634.699C1676.68 634.699 1678.66 635.842 1679.73 637.699L1701.27 675Z" fill="white" fill-opacity="0.2"/>
<path d="M1701.27 575C1702.34 576.856 1702.34 579.144 1701.27 581L1679.73 618.301C1678.66 620.158 1676.68 621.301 1674.54 621.301L1631.46 621.301C1629.32 621.301 1627.34 620.158 1626.27 618.301L1604.73 581C1603.66 579.144 1603.66 576.856 1604.73 575L1626.27 537.699C1627.34 535.842 1629.32 534.699 1631.46 534.699L1674.54 534.699C1676.68 534.699 1678.66 535.842 1679.73 537.699L1701.27 575Z" fill="white" fill-opacity="0.2"/>
<path d="M98.2679 97C99.3397 98.8564 99.3397 101.144 98.2679 103L76.732 140.301C75.6602 142.158 73.6795 143.301 71.5359 143.301L28.4641 143.301C26.3205 143.301 24.3397 142.158 23.2679 140.301L1.73205 103C0.660251 101.144 0.660252 98.8564 1.73205 97L23.2679 59.6987C24.3397 57.8423 26.3205 56.6987 28.4641 56.6987L71.5359 56.6987C73.6795 56.6987 75.6603 57.8423 76.7321 59.6987L98.2679 97Z" fill="white" fill-opacity="0.2"/>
<path d="M265.268 97C266.34 98.8564 266.34 101.144 265.268 103L243.732 140.301C242.66 142.158 240.679 143.301 238.536 143.301L195.464 143.301C193.321 143.301 191.34 142.158 190.268 140.301L168.732 103C167.66 101.144 167.66 98.8564 168.732 97L190.268 59.6987C191.34 57.8423 193.321 56.6987 195.464 56.6987L238.536 56.6987C240.679 56.6987 242.66 57.8423 243.732 59.6987L265.268 97Z" fill="white" fill-opacity="0.2"/>
<path d="M182.268 147C183.34 148.856 183.34 151.144 182.268 153L160.732 190.301C159.66 192.158 157.679 193.301 155.536 193.301L112.464 193.301C110.321 193.301 108.34 192.158 107.268 190.301L85.732 153C84.6603 151.144 84.6603 148.856 85.732 147L107.268 109.699C108.34 107.842 110.321 106.699 112.464 106.699L155.536 106.699C157.679 106.699 159.66 107.842 160.732 109.699L182.268 147Z" fill="white" fill-opacity="0.2"/>
<path d="M182.268 47C183.34 48.8564 183.34 51.1436 182.268 53L160.732 90.3013C159.66 92.1577 157.679 93.3013 155.536 93.3013L112.464 93.3013C110.321 93.3013 108.34 92.1577 107.268 90.3013L85.732 53C84.6603 51.1436 84.6603 48.8564 85.732 47L107.268 9.69873C108.34 7.84232 110.321 6.69873 112.464 6.69873L155.536 6.69873C157.679 6.69873 159.66 7.84232 160.732 9.69873L182.268 47Z" fill="white" fill-opacity="0.2"/>
</svg>
