<svg width="2560" height="1314" viewBox="0 0 2560 1314" fill="none" xmlns="http://www.w3.org/2000/svg">
<g clip-path="url(#clip0_27_927)">
<path d="M-216 28H806.024C833.085 28 859.036 38.7534 878.167 57.893L1355.93 535.893C1395.74 575.722 1395.74 640.278 1355.93 680.107L878.167 1158.11C859.036 1177.25 833.085 1188 806.024 1188H512" stroke="white" stroke-opacity="0.35" stroke-width="6"/>
<path d="M2862 562L1839.98 562C1812.92 562 1786.96 572.753 1767.83 591.893L1290.07 1069.89C1250.26 1109.72 1250.26 1174.28 1290.07 1214.11L1767.83 1692.11C1786.96 1711.25 1812.92 1722 1839.98 1722L2134 1722" stroke="white" stroke-opacity="0.35" stroke-width="6"/>
<path d="M1898.27 936C1899.34 937.856 1899.34 940.144 1898.27 942L1876.73 979.301C1875.66 981.158 1873.68 982.301 1871.54 982.301L1828.46 982.301C1826.32 982.301 1824.34 981.158 1823.27 979.301L1801.73 942C1800.66 940.144 1800.66 937.856 1801.73 936L1823.27 898.699C1824.34 896.842 1826.32 895.699 1828.46 895.699L1871.54 895.699C1873.68 895.699 1875.66 896.842 1876.73 898.699L1898.27 936Z" fill="white" fill-opacity="0.2"/>
<path d="M2065.27 936C2066.34 937.856 2066.34 940.144 2065.27 942L2043.73 979.301C2042.66 981.158 2040.68 982.301 2038.54 982.301L1995.46 982.301C1993.32 982.301 1991.34 981.158 1990.27 979.301L1968.73 942C1967.66 940.144 1967.66 937.856 1968.73 936L1990.27 898.699C1991.34 896.842 1993.32 895.699 1995.46 895.699L2038.54 895.699C2040.68 895.699 2042.66 896.842 2043.73 898.699L2065.27 936Z" fill="white" fill-opacity="0.2"/>
<path d="M1982.27 986C1983.34 987.856 1983.34 990.144 1982.27 992L1960.73 1029.3C1959.66 1031.16 1957.68 1032.3 1955.54 1032.3L1912.46 1032.3C1910.32 1032.3 1908.34 1031.16 1907.27 1029.3L1885.73 992C1884.66 990.144 1884.66 987.856 1885.73 986L1907.27 948.699C1908.34 946.842 1910.32 945.699 1912.46 945.699L1955.54 945.699C1957.68 945.699 1959.66 946.842 1960.73 948.699L1982.27 986Z" fill="white" fill-opacity="0.2"/>
<path d="M1982.27 886C1983.34 887.856 1983.34 890.144 1982.27 892L1960.73 929.301C1959.66 931.158 1957.68 932.301 1955.54 932.301L1912.46 932.301C1910.32 932.301 1908.34 931.158 1907.27 929.301L1885.73 892C1884.66 890.144 1884.66 887.856 1885.73 886L1907.27 848.699C1908.34 846.842 1910.32 845.699 1912.46 845.699L1955.54 845.699C1957.68 845.699 1959.66 846.842 1960.73 848.699L1982.27 886Z" fill="white" fill-opacity="0.2"/>
<path d="M379.268 408C380.34 409.856 380.34 412.144 379.268 414L357.732 451.301C356.66 453.158 354.679 454.301 352.536 454.301L309.464 454.301C307.321 454.301 305.34 453.158 304.268 451.301L282.732 414C281.66 412.144 281.66 409.856 282.732 408L304.268 370.699C305.34 368.842 307.321 367.699 309.464 367.699L352.536 367.699C354.679 367.699 356.66 368.842 357.732 370.699L379.268 408Z" fill="white" fill-opacity="0.2"/>
<path d="M546.268 408C547.34 409.856 547.34 412.144 546.268 414L524.732 451.301C523.66 453.158 521.679 454.301 519.536 454.301L476.464 454.301C474.321 454.301 472.34 453.158 471.268 451.301L449.732 414C448.66 412.144 448.66 409.856 449.732 408L471.268 370.699C472.34 368.842 474.321 367.699 476.464 367.699L519.536 367.699C521.679 367.699 523.66 368.842 524.732 370.699L546.268 408Z" fill="white" fill-opacity="0.2"/>
<path d="M463.268 458C464.34 459.856 464.34 462.144 463.268 464L441.732 501.301C440.66 503.158 438.679 504.301 436.536 504.301L393.464 504.301C391.321 504.301 389.34 503.158 388.268 501.301L366.732 464C365.66 462.144 365.66 459.856 366.732 458L388.268 420.699C389.34 418.842 391.321 417.699 393.464 417.699L436.536 417.699C438.679 417.699 440.66 418.842 441.732 420.699L463.268 458Z" fill="white" fill-opacity="0.2"/>
<path d="M463.268 358C464.34 359.856 464.34 362.144 463.268 364L441.732 401.301C440.66 403.158 438.679 404.301 436.536 404.301L393.464 404.301C391.321 404.301 389.34 403.158 388.268 401.301L366.732 364C365.66 362.144 365.66 359.856 366.732 358L388.268 320.699C389.34 318.842 391.321 317.699 393.464 317.699L436.536 317.699C438.679 317.699 440.66 318.842 441.732 320.699L463.268 358Z" fill="white" fill-opacity="0.2"/>
</g>
<defs>
<clipPath id="clip0_27_927">
<rect width="2560" height="1314" fill="white"/>
</clipPath>
</defs>
</svg>
