<svg width="251" height="82" viewBox="0 0 251 82" fill="none" xmlns="http://www.w3.org/2000/svg">
<path d="M91.3274 37.0001V21.7274H94.5565V28.0289H101.112V21.7274H104.333V37.0001H101.112V30.6911H94.5565V37.0001H91.3274Z" fill="white"/>
<path d="M109.628 37.0001H106.168L111.44 21.7274H115.601L120.866 37.0001H117.406L113.58 25.2174H113.461L109.628 37.0001ZM109.412 30.9969H117.585V33.5175H109.412V30.9969Z" fill="white"/>
<path d="M122.704 37.0001V21.7274H128.73C129.888 21.7274 130.875 21.9486 131.691 22.3911C132.506 22.8286 133.127 23.4376 133.555 24.2181C133.987 24.9937 134.204 25.8886 134.204 26.9028C134.204 27.917 133.985 28.8119 133.547 29.5874C133.11 30.363 132.476 30.9671 131.646 31.3996C130.821 31.8321 129.821 32.0484 128.648 32.0484H124.807V29.4607H128.126C128.747 29.4607 129.259 29.3538 129.662 29.14C130.07 28.9213 130.373 28.6205 130.572 28.2377C130.776 27.8499 130.878 27.4049 130.878 26.9028C130.878 26.3957 130.776 25.9532 130.572 25.5754C130.373 25.1926 130.07 24.8968 129.662 24.6879C129.254 24.4742 128.737 24.3673 128.111 24.3673H125.933V37.0001H122.704Z" fill="white"/>
<path d="M150.336 29.3637C150.336 31.0292 150.02 32.4461 149.389 33.6144C148.762 34.7828 147.907 35.6752 146.823 36.2916C145.745 36.9031 144.532 37.2089 143.184 37.2089C141.827 37.2089 140.609 36.9007 139.53 36.2842C138.451 35.6677 137.599 34.7753 136.972 33.607C136.346 32.4387 136.033 31.0242 136.033 29.3637C136.033 27.6982 136.346 26.2813 136.972 25.113C137.599 23.9447 138.451 23.0548 139.53 22.4433C140.609 21.8268 141.827 21.5186 143.184 21.5186C144.532 21.5186 145.745 21.8268 146.823 22.4433C147.907 23.0548 148.762 23.9447 149.389 25.113C150.02 26.2813 150.336 27.6982 150.336 29.3637ZM147.062 29.3637C147.062 28.2849 146.9 27.3751 146.577 26.6343C146.259 25.8936 145.809 25.3318 145.228 24.949C144.646 24.5661 143.965 24.3747 143.184 24.3747C142.404 24.3747 141.723 24.5661 141.141 24.949C140.559 25.3318 140.107 25.8936 139.784 26.6343C139.465 27.3751 139.306 28.2849 139.306 29.3637C139.306 30.4426 139.465 31.3524 139.784 32.0931C140.107 32.8339 140.559 33.3957 141.141 33.7785C141.723 34.1613 142.404 34.3527 143.184 34.3527C143.965 34.3527 144.646 34.1613 145.228 33.7785C145.809 33.3957 146.259 32.8339 146.577 32.0931C146.9 31.3524 147.062 30.4426 147.062 29.3637Z" fill="white"/>
<path d="M151.9 40.684V34.4273H152.937C153.29 34.1737 153.613 33.8158 153.906 33.3534C154.199 32.8861 154.45 32.2423 154.659 31.422C154.868 30.5967 155.017 29.5178 155.107 28.1855L155.539 21.7274H165.644V34.4273H167.314V40.6691H164.212V37.0001H155.002V40.684H151.9ZM156.665 34.4273H162.542V24.3896H158.448L158.209 28.1855C158.144 29.1947 158.037 30.0896 157.888 30.8701C157.744 31.6507 157.568 32.3343 157.359 32.9209C157.155 33.5026 156.924 34.0047 156.665 34.4273Z" fill="white"/>
<path d="M169.278 37.0001V21.7274H172.507V28.0289H179.062V21.7274H182.283V37.0001H179.062V30.6911H172.507V37.0001H169.278Z" fill="white"/>
<path d="M198.98 29.3637C198.98 31.0292 198.665 32.4461 198.033 33.6144C197.407 34.7828 196.552 35.6752 195.468 36.2916C194.389 36.9031 193.176 37.2089 191.829 37.2089C190.472 37.2089 189.253 36.9007 188.175 36.2842C187.096 35.6677 186.243 34.7753 185.617 33.607C184.99 32.4387 184.677 31.0242 184.677 29.3637C184.677 27.6982 184.99 26.2813 185.617 25.113C186.243 23.9447 187.096 23.0548 188.175 22.4433C189.253 21.8268 190.472 21.5186 191.829 21.5186C193.176 21.5186 194.389 21.8268 195.468 22.4433C196.552 23.0548 197.407 23.9447 198.033 25.113C198.665 26.2813 198.98 27.6982 198.98 29.3637ZM195.707 29.3637C195.707 28.2849 195.545 27.3751 195.222 26.6343C194.904 25.8936 194.454 25.3318 193.872 24.949C193.29 24.5661 192.609 24.3747 191.829 24.3747C191.048 24.3747 190.367 24.5661 189.785 24.949C189.204 25.3318 188.751 25.8936 188.428 26.6343C188.11 27.3751 187.951 28.2849 187.951 29.3637C187.951 30.4426 188.11 31.3524 188.428 32.0931C188.751 32.8339 189.204 33.3957 189.785 33.7785C190.367 34.1613 191.048 34.3527 191.829 34.3527C192.609 34.3527 193.29 34.1613 193.872 33.7785C194.454 33.3957 194.904 32.8339 195.222 32.0931C195.545 31.3524 195.707 30.4426 195.707 29.3637Z" fill="white"/>
<path d="M201.372 37.0001V21.7274H211.664V24.3896H204.601V28.0289H211.134V30.6911H204.601V34.3378H211.693V37.0001H201.372Z" fill="white"/>
<path d="M105.362 54.3637C105.362 56.0292 105.047 57.4461 104.415 58.6144C103.789 59.7828 102.934 60.6752 101.85 61.2916C100.771 61.9031 99.5579 62.2089 98.2106 62.2089C96.8533 62.2089 95.6353 61.9007 94.5565 61.2842C93.4776 60.6677 92.625 59.7753 91.9986 58.607C91.3722 57.4387 91.059 56.0242 91.059 54.3637C91.059 52.6982 91.3722 51.2813 91.9986 50.113C92.625 48.9447 93.4776 48.0548 94.5565 47.4433C95.6353 46.8268 96.8533 46.5186 98.2106 46.5186C99.5579 46.5186 100.771 46.8268 101.85 47.4433C102.934 48.0548 103.789 48.9447 104.415 50.113C105.047 51.2813 105.362 52.6982 105.362 54.3637ZM102.088 54.3637C102.088 53.2849 101.927 52.3751 101.604 51.6343C101.286 50.8936 100.836 50.3318 100.254 49.949C99.6722 49.5661 98.9911 49.3747 98.2106 49.3747C97.4301 49.3747 96.7489 49.5661 96.1673 49.949C95.5856 50.3318 95.1332 50.8936 94.81 51.6343C94.4918 52.3751 94.3328 53.2849 94.3328 54.3637C94.3328 55.4426 94.4918 56.3524 94.81 57.0931C95.1332 57.8339 95.5856 58.3957 96.1673 58.7785C96.7489 59.1613 97.4301 59.3527 98.2106 59.3527C98.9911 59.3527 99.6722 59.1613 100.254 58.7785C100.836 58.3957 101.286 57.8339 101.604 57.0931C101.927 56.3524 102.088 55.4426 102.088 54.3637Z" fill="white"/>
<path d="M107.754 62.0001V46.7274H117.889V49.3897H110.983V52.3726H113.467C114.675 52.3726 115.716 52.569 116.591 52.9617C117.471 53.3495 118.15 53.8989 118.627 54.6098C119.104 55.3208 119.343 56.1585 119.343 57.123C119.343 58.0825 119.104 58.9301 118.627 59.6659C118.15 60.3967 117.471 60.9685 116.591 61.3811C115.716 61.7938 114.675 62.0001 113.467 62.0001H107.754ZM110.983 59.4049H113.467C114.043 59.4049 114.53 59.3005 114.928 59.0917C115.326 58.8779 115.627 58.597 115.831 58.249C116.039 57.896 116.144 57.5107 116.144 57.0931C116.144 56.4866 115.913 55.9745 115.45 55.5569C114.993 55.1343 114.332 54.923 113.467 54.923H110.983V59.4049Z" fill="white"/>
<path d="M121.433 62.0001V46.7274H127.458C128.617 46.7274 129.604 46.9486 130.419 47.3911C131.234 47.8286 131.856 48.4376 132.283 49.2181C132.716 49.9937 132.932 50.8886 132.932 51.9028C132.932 52.917 132.713 53.8119 132.276 54.5874C131.838 55.363 131.205 55.9671 130.374 56.3996C129.549 56.8321 128.55 57.0484 127.376 57.0484H123.536V54.4607H126.854C127.476 54.4607 127.988 54.3538 128.391 54.14C128.798 53.9213 129.102 53.6205 129.3 53.2377C129.504 52.8499 129.606 52.4049 129.606 51.9028C129.606 51.3957 129.504 50.9532 129.3 50.5754C129.102 50.1926 128.798 49.8968 128.391 49.6879C127.983 49.4742 127.466 49.3673 126.84 49.3673H124.662V62.0001H121.433Z" fill="white"/>
<path d="M135.898 62.0001H132.438L137.711 46.7274H141.872L147.137 62.0001H143.676L139.851 50.2174H139.731L135.898 62.0001ZM135.682 55.9969H143.855V58.5175H135.682V55.9969Z" fill="white"/>
<path d="M154.531 62.2089C153.417 62.2089 152.425 62.0175 151.555 61.6347C150.69 61.2469 150.006 60.7149 149.504 60.0388C149.007 59.3577 148.751 58.5722 148.736 57.6823H151.988C152.008 58.0551 152.129 58.3833 152.353 58.6666C152.582 58.945 152.885 59.1613 153.263 59.3154C153.641 59.4695 154.066 59.5466 154.538 59.5466C155.03 59.5466 155.465 59.4596 155.843 59.2856C156.221 59.1116 156.517 58.8705 156.731 58.5622C156.944 58.254 157.051 57.8985 157.051 57.4958C157.051 57.0882 156.937 56.7277 156.708 56.4145C156.484 56.0963 156.161 55.8477 155.739 55.6688C155.321 55.4898 154.824 55.4003 154.247 55.4003H152.823V53.0289H154.247C154.734 53.0289 155.165 52.9443 155.537 52.7753C155.915 52.6063 156.209 52.3726 156.417 52.0743C156.626 51.771 156.731 51.4181 156.731 51.0154C156.731 50.6325 156.639 50.297 156.455 50.0086C156.276 49.7153 156.022 49.4866 155.694 49.3225C155.371 49.1585 154.993 49.0764 154.56 49.0764C154.123 49.0764 153.723 49.156 153.36 49.3151C152.997 49.4692 152.706 49.6904 152.487 49.9788C152.269 50.2671 152.152 50.6052 152.137 50.993H149.042C149.057 50.113 149.308 49.3374 149.795 48.6663C150.282 47.9951 150.939 47.4706 151.764 47.0928C152.594 46.71 153.531 46.5186 154.575 46.5186C155.629 46.5186 156.552 46.71 157.342 47.0928C158.133 47.4756 158.747 47.9926 159.184 48.6439C159.627 49.2902 159.845 50.0161 159.84 50.8215C159.845 51.6766 159.579 52.39 159.042 52.9617C158.51 53.5335 157.817 53.8964 156.962 54.0505V54.1698C158.085 54.314 158.94 54.7043 159.527 55.3406C160.119 55.972 160.412 56.7625 160.407 57.7121C160.412 58.5821 160.161 59.3552 159.654 60.0313C159.152 60.7075 158.458 61.2394 157.573 61.6272C156.688 62.015 155.674 62.2089 154.531 62.2089Z" fill="white"/>
<path d="M176.852 54.3637C176.852 56.0292 176.537 57.4461 175.905 58.6144C175.279 59.7828 174.424 60.6752 173.34 61.2916C172.261 61.9031 171.048 62.2089 169.701 62.2089C168.344 62.2089 167.126 61.9007 166.047 61.2842C164.968 60.6677 164.115 59.7753 163.489 58.607C162.862 57.4387 162.549 56.0242 162.549 54.3637C162.549 52.6982 162.862 51.2813 163.489 50.113C164.115 48.9447 164.968 48.0548 166.047 47.4433C167.126 46.8268 168.344 46.5186 169.701 46.5186C171.048 46.5186 172.261 46.8268 173.34 47.4433C174.424 48.0548 175.279 48.9447 175.905 50.113C176.537 51.2813 176.852 52.6982 176.852 54.3637ZM173.579 54.3637C173.579 53.2849 173.417 52.3751 173.094 51.6343C172.776 50.8936 172.326 50.3318 171.744 49.949C171.162 49.5661 170.481 49.3747 169.701 49.3747C168.92 49.3747 168.239 49.5661 167.658 49.949C167.076 50.3318 166.623 50.8936 166.3 51.6343C165.982 52.3751 165.823 53.2849 165.823 54.3637C165.823 55.4426 165.982 56.3524 166.3 57.0931C166.623 57.8339 167.076 58.3957 167.658 58.7785C168.239 59.1613 168.92 59.3527 169.701 59.3527C170.481 59.3527 171.162 59.1613 171.744 58.7785C172.326 58.3957 172.776 57.8339 173.094 57.0931C173.417 56.3524 173.579 55.4426 173.579 54.3637Z" fill="white"/>
<path d="M179.244 62.0001V46.7274H185.359C186.483 46.7274 187.42 46.8939 188.171 47.227C188.922 47.5601 189.486 48.0225 189.864 48.6141C190.242 49.2007 190.43 49.8769 190.43 50.6425C190.43 51.2391 190.311 51.7636 190.073 52.216C189.834 52.6634 189.506 53.0313 189.088 53.3197C188.676 53.6031 188.203 53.8044 187.671 53.9237V54.0729C188.253 54.0977 188.797 54.2618 189.304 54.5651C189.817 54.8683 190.232 55.2934 190.55 55.8403C190.868 56.3822 191.027 57.0285 191.027 57.7792C191.027 58.5896 190.826 59.3129 190.423 59.9493C190.025 60.5807 189.436 61.0803 188.656 61.4482C187.875 61.8161 186.913 62.0001 185.77 62.0001H179.244ZM182.473 59.3602H185.106C186.006 59.3602 186.662 59.1887 187.075 58.8456C187.487 58.4976 187.694 58.0352 187.694 57.4585C187.694 57.036 187.592 56.6631 187.388 56.3399C187.184 56.0168 186.893 55.7632 186.515 55.5793C186.142 55.3953 185.698 55.3034 185.18 55.3034H182.473V59.3602ZM182.473 53.1183H184.867C185.31 53.1183 185.703 53.0413 186.046 52.8872C186.394 52.7281 186.667 52.5044 186.866 52.216C187.07 51.9276 187.172 51.5821 187.172 51.1794C187.172 50.6276 186.975 50.1826 186.582 49.8445C186.195 49.5065 185.643 49.3374 184.927 49.3374H182.473V53.1183Z" fill="white"/>
<path d="M195.761 62.0001H192.3L197.573 46.7274H201.734L206.999 62.0001H203.539L199.713 50.2174H199.594L195.761 62.0001ZM195.544 55.9969H203.718V58.5175H195.544V55.9969Z" fill="white"/>
<path d="M208.837 62.0001V46.7274H212.066V53.0289H218.621V46.7274H221.843V62.0001H218.621V55.6911H212.066V62.0001H208.837Z" fill="white"/>
<path d="M224.505 46.7274H227.727V56.3325H227.854L234.453 46.7274H237.28V62.0001H234.051V52.3875H233.939L227.302 62.0001H224.505V46.7274Z" fill="white"/>
<path d="M239.948 62.0001V46.7274H250.239V49.3897H243.177V53.0289H249.709V55.6911H243.177V59.3378H250.269V62.0001H239.948Z" fill="white"/>
<path d="M10.4563 28.8216C10.5241 41.6604 15.2127 56.7919 27.1884 68.6536C27.1788 68.6389 27.1642 68.6291 27.1546 68.6143C26.1336 67.4655 25.1417 66.2921 24.3239 64.9861C23.7336 64.0434 23.1772 63.0713 22.6304 62.1041C21.624 60.3219 20.6949 58.5054 20.0078 56.566C18.4498 52.1523 17.6853 47.5961 17.5595 42.9172C17.5063 40.9141 17.5643 38.9159 17.7482 36.9176C17.9321 34.9489 18.2272 32.9997 18.653 31.0702C19.6353 26.5877 21.2804 22.3703 23.5207 18.3837C25.3981 15.0451 27.7933 12.1141 30.3529 9.30575C31.3981 8.16181 32.4045 6.98349 33.3819 5.77571C34.0448 4.96071 34.5723 4.04752 34.8723 3.0214C35.1287 2.14257 34.9787 1.35212 34.3255 0.699136C33.8368 0.208171 33.2077 0.036333 32.54 0.00687512C31.2771 -0.047131 30.0578 0.2229 28.8626 0.610762C25.1949 1.80381 21.803 3.5811 18.6046 5.73644C17.574 6.4287 16.5821 7.16515 15.624 7.94578C12.3918 12.8211 10.4079 20.3181 10.4563 28.8216Z" fill="url(#paint0_linear_26_835)"/>
<path d="M10.4563 28.8216C10.4128 20.3181 12.3918 12.8211 15.624 7.9458C12.3918 12.8211 10.4079 20.3181 10.4563 28.8216Z" fill="#119FD9"/>
<path d="M37.161 79.6463C37.1223 78.9737 36.8755 78.36 36.5368 77.7856C35.7433 76.4502 34.6449 75.3946 33.4449 74.4421C31.2143 72.6746 29.0853 70.7942 27.1885 68.6536C15.2128 56.7919 10.5241 41.6604 10.4564 28.8216C10.4128 20.3181 12.3918 12.8211 15.6241 7.9458C13.5628 9.61999 11.6612 11.4807 9.92412 13.5281C7.87736 15.9436 6.12092 18.5556 4.66932 21.3786C2.57417 25.4683 1.1758 29.7888 0.503222 34.3499C0.188708 36.52 0.0193547 38.6999 0 40.8945C0.043548 41.896 0.0532254 42.9025 0.135483 43.9041C0.25645 45.3082 0.391932 46.7173 0.590318 48.1117C0.904832 50.3357 1.4516 52.5107 2.17256 54.6366C3.03385 57.1798 4.1419 59.6051 5.49189 61.9176C7.49026 65.3445 9.92412 68.418 12.7741 71.1526C14.5112 72.817 16.3692 74.3292 18.3482 75.6891C21.7837 78.0409 25.4804 79.8722 29.4191 81.188C30.9965 81.7182 32.5981 82.0717 34.2723 81.9833C34.9255 81.949 35.5642 81.8262 36.1497 81.5022C36.9287 81.0701 37.2045 80.4073 37.161 79.6463Z" fill="url(#paint1_linear_26_835)"/>
<path d="M56.1819 54.1749C53.5061 56.075 50.4191 57.0471 46.8288 57.1011C46.3884 57.0716 45.7401 57.0422 45.0917 56.9734C42.9627 56.7427 40.9546 56.0995 39.0385 55.1323C36.4401 53.8214 34.3353 51.9165 32.5982 49.5795C31.8724 48.6025 31.2676 47.5469 30.7595 46.4324C29.066 42.6962 28.7515 38.8224 29.5354 34.8211C29.6466 34.2467 29.8257 33.682 29.7821 33.0831C29.6999 31.9244 28.8821 31.3107 27.7789 31.6151C27.1596 31.7869 26.6418 32.1404 26.1773 32.5872C24.8322 33.8833 23.8886 35.4544 23.1919 37.1777C22.1419 39.7651 21.7015 42.4752 21.5951 45.2443C24.266 62.7717 48.7013 66.5129 56.1819 54.1749Z" fill="url(#paint2_linear_26_835)"/>
<path d="M68.177 45.7549C67.9883 44.4636 67.7173 43.197 67.098 42.0383C66.8996 41.6701 66.6673 41.2871 66.3577 41.0269C65.5641 40.3641 64.8528 40.477 64.3399 41.2626C63.9722 41.8272 63.769 42.4654 63.5851 43.1086C62.5738 46.6337 60.948 49.8004 58.3158 52.378C57.6335 53.0457 56.9222 53.6447 56.1819 54.17C48.7013 66.508 24.266 62.7668 21.5951 45.2296C21.5854 45.4259 21.5806 45.6223 21.5757 45.8236C21.5419 47.2965 21.6386 48.7645 21.837 50.2227C22.2725 53.463 23.1773 56.5561 24.6725 59.4577C26.0273 62.0795 27.7692 64.3968 29.9805 66.346C31.4757 67.6617 33.1111 68.7664 34.9208 69.5814C39.3433 71.5796 43.9643 72.1983 48.7497 71.5305C51.7642 71.1083 54.5948 70.1166 57.2271 68.5602C59.6996 67.0922 61.8722 65.2609 63.6093 62.9387C65.1383 60.8962 66.1931 58.5985 66.9915 56.1732C68.1093 52.7855 68.7044 49.334 68.177 45.7549Z" fill="url(#paint3_linear_26_835)"/>
<path d="M62.4335 38.6705C62.4383 36.1518 62.0222 33.9523 61.1658 31.851C59.7287 28.321 57.3819 25.6108 53.9997 23.8826C51.861 22.7927 49.5723 22.3066 47.1771 22.4245C46.2094 22.4736 45.232 22.557 44.2788 22.7436C40.6256 23.4506 37.7321 25.4095 35.4724 28.375C33.7934 30.5794 32.6998 33.0539 32.2063 35.7934C31.9934 36.9914 31.8289 38.1943 31.9063 39.4217C31.9402 39.9716 32.0224 40.5116 32.3224 40.9879C32.7724 41.7096 33.6724 41.793 34.2143 41.1499C34.4708 40.8455 34.6837 40.5067 34.9014 40.1729C35.8111 38.7638 36.8563 37.4627 38.0804 36.3384C43.6256 25.7679 59.8835 23.4457 62.4335 38.6705Z" fill="url(#paint4_linear_26_835)"/>
<path d="M62.4334 38.6705C59.8834 23.4456 43.6254 25.763 38.0803 36.3482C38.2158 36.2205 38.3561 36.0978 38.5013 35.9751C42.3819 32.6561 46.7415 31.8755 51.5076 33.5792C53.5496 34.3058 55.2576 35.5676 56.5641 37.335C57.4979 38.5968 58.1463 40.0206 58.7463 41.4739C59.0173 42.1269 59.3173 42.7749 59.6753 43.3837C59.9995 43.9434 60.7011 43.9827 61.1753 43.5359C61.5963 43.1382 61.8188 42.6227 61.9882 42.0827C62.3559 40.9093 62.443 39.6966 62.4334 38.7245C62.4334 38.6999 62.4334 38.6852 62.4334 38.6705Z" fill="url(#paint5_linear_26_835)"/>
<path d="M81.9139 33.9762C81.8945 33.4411 81.8703 32.9059 81.8074 32.3757C81.4832 29.5674 80.8445 26.8327 79.8284 24.1962C78.1203 19.7579 75.6575 15.8252 72.2462 12.5309C69.2656 9.65381 65.7962 7.60649 61.8914 6.3398C58.5866 5.2695 55.1802 4.89636 51.7206 4.95037C49.2286 4.98964 46.7754 5.30877 44.3658 5.94212C41.2206 6.76694 38.3174 8.0729 35.6465 9.83056C47.2641 4.92091 67.3156 9.4918 68.5833 35.2331C68.6656 35.4491 68.743 35.6701 68.8204 35.891C69.9914 39.2737 70.6301 42.7645 70.6833 46.3535C70.7027 47.7969 70.6881 49.2452 70.6398 50.6887C70.6011 51.9308 70.5091 53.168 70.422 54.4053C70.3252 55.7996 70.1994 57.1891 70.1123 58.5834C70.0591 59.4229 70.1511 60.2478 70.543 61.0137C70.993 61.8974 71.7865 62.1773 72.672 61.7698C73.2333 61.5145 73.6736 61.0971 74.0849 60.6405C74.8688 59.7715 75.4252 58.7454 76.0107 57.7389C78.1784 54.0174 79.78 50.0602 80.8252 45.8772C81.0719 44.8806 81.2413 43.8643 81.4348 42.8578C81.5461 42.2637 81.6477 41.6696 81.7252 41.0707C81.7929 40.5159 81.8268 39.9513 81.8703 39.3916C81.9187 38.7386 82.0058 38.0905 82.0058 37.4375C82.001 36.2838 81.9526 35.13 81.9139 33.9762Z" fill="url(#paint6_linear_26_835)"/>
<path d="M35.6417 9.83111C34.6256 10.4988 33.6433 11.2353 32.695 12.0355C29.8111 14.4609 27.4837 17.3674 25.6256 20.6618C24.4547 22.7337 23.4482 24.8841 22.8434 27.2113C22.6208 28.0754 22.4757 28.9542 22.616 29.8527C22.7612 30.7757 23.3466 31.1095 24.1837 30.7168C24.566 30.5351 24.9434 30.3142 25.2724 30.0441C26.1434 29.3322 26.9902 28.586 27.8418 27.8495C30.3627 25.65 33.0917 23.7647 36.1207 22.3507C39.561 20.7453 43.1658 19.8124 46.9642 19.729C48.6916 19.7093 50.4045 19.8566 52.1029 20.2101C57.6577 21.3835 62.0947 24.3048 65.3899 28.9886C66.7447 30.9181 67.7656 33.0243 68.5785 35.2287C67.3108 9.49235 47.2594 4.91655 35.6417 9.83111Z" fill="url(#paint7_linear_26_835)"/>
<path d="M49.3157 35.3659C48.4496 35.1352 47.5448 35.0517 46.6012 35.1842C46.0835 35.253 45.5851 35.3905 45.1932 35.7685C44.7722 36.1809 44.7722 36.7161 45.1787 37.1285C45.2609 37.207 45.3432 37.2856 45.4303 37.3592C46.3883 38.1595 47.3028 39.0138 48.0577 40.0203C49.2141 41.5668 49.8189 43.3048 49.8335 45.6025C49.7851 45.9757 49.7222 46.6974 49.6012 47.4093C49.4222 48.4501 49.1319 49.4468 48.6673 50.3649C55.3979 43.6779 52.8915 36.8732 49.3157 35.3659Z" fill="url(#paint8_linear_26_835)"/>
<path d="M56.235 43.5064C56.056 41.5818 55.3253 39.888 54.1011 38.4151C53.3947 37.5608 52.5624 36.8587 51.5947 36.3236C50.8544 35.9112 50.0947 35.5822 49.3109 35.3711C52.8866 36.8784 55.3931 43.6831 48.6625 50.3652C48.4302 50.8218 48.1593 51.2587 47.8302 51.676C47.327 52.3143 46.7996 52.9329 46.3206 53.5908C45.9141 54.1505 46.1222 54.7298 46.7657 54.9753C47.2109 55.1423 47.6705 55.1324 48.1254 55.0392C50.1238 54.6366 51.9044 53.8166 53.2834 52.2456C53.656 51.8184 54.0576 51.4011 54.3721 50.9298C55.8527 48.6762 56.4818 46.1969 56.235 43.5064Z" fill="url(#paint9_linear_26_835)"/>
<defs>
<linearGradient id="paint0_linear_26_835" x1="35.9066" y1="5.14439" x2="12.2586" y2="57.022" gradientUnits="userSpaceOnUse">
<stop offset="0.00651678" stop-color="#0084CB"/>
<stop offset="1" stop-color="#009CC3"/>
</linearGradient>
<linearGradient id="paint1_linear_26_835" x1="2.89536" y1="16.7135" x2="30.0635" y2="81.2335" gradientUnits="userSpaceOnUse">
<stop offset="0.00651678" stop-color="#009BD8"/>
<stop offset="1" stop-color="#50BDDB"/>
</linearGradient>
<linearGradient id="paint2_linear_26_835" x1="21.5951" y1="46.474" x2="56.1819" y2="46.474" gradientUnits="userSpaceOnUse">
<stop offset="0.00651678" stop-color="#75B727"/>
<stop offset="1" stop-color="#8DBF1E"/>
</linearGradient>
<linearGradient id="paint3_linear_26_835" x1="21.5691" y1="56.1913" x2="68.3715" y2="56.1913" gradientUnits="userSpaceOnUse">
<stop offset="0.00651678" stop-color="#93C11C"/>
<stop offset="1" stop-color="#B3CC02"/>
</linearGradient>
<linearGradient id="paint4_linear_26_835" x1="31.8868" y1="31.996" x2="62.4335" y2="31.996" gradientUnits="userSpaceOnUse">
<stop offset="0.00651746" stop-color="#FEEA0B"/>
<stop offset="1" stop-color="#FCC400"/>
</linearGradient>
<linearGradient id="paint5_linear_26_835" x1="38.0803" y1="35.8356" x2="62.4341" y2="35.8356" gradientUnits="userSpaceOnUse">
<stop offset="0.00651746" stop-color="#FCCB05"/>
<stop offset="1" stop-color="#FCC400"/>
</linearGradient>
<linearGradient id="paint6_linear_26_835" x1="35.6465" y1="33.4492" x2="82.0058" y2="33.4492" gradientUnits="userSpaceOnUse">
<stop stop-color="#F49A15"/>
<stop offset="1" stop-color="#EB5E18"/>
</linearGradient>
<linearGradient id="paint7_linear_26_835" x1="22.5607" y1="21.6583" x2="68.5785" y2="21.6583" gradientUnits="userSpaceOnUse">
<stop stop-color="#F49A15"/>
<stop offset="1" stop-color="#EB5E18"/>
</linearGradient>
<linearGradient id="paint8_linear_26_835" x1="44.8756" y1="42.743" x2="52.8871" y2="42.743" gradientUnits="userSpaceOnUse">
<stop offset="0.00651678" stop-color="#92519A"/>
<stop offset="1" stop-color="#772F88"/>
</linearGradient>
<linearGradient id="paint9_linear_26_835" x1="51.1996" y1="34.7267" x2="51.1996" y2="54.1162" gradientUnits="userSpaceOnUse">
<stop offset="0.00651701" stop-color="#A564A5"/>
<stop offset="1" stop-color="#852484"/>
</linearGradient>
</defs>
</svg>
