<svg width="192" height="72" viewBox="0 0 192 72" fill="none" xmlns="http://www.w3.org/2000/svg">
<path d="M106.196 56.0446H114.282L112.303 49.6631L110.411 42.3886H110.11L108.153 49.6631L106.196 56.0446ZM116.131 62.426H104.347L102.325 68.8074C102.132 69.4669 101.874 69.7648 100.885 69.7648H94.8636C94.1539 69.7648 94.0034 69.2543 94.1539 68.765L104.906 36.8579C105.615 34.5182 106.54 34.114 108.648 34.0713H111.744C114.067 34.0713 114.927 34.3691 115.744 36.8579L126.496 68.765C126.647 69.1691 126.496 69.7648 125.83 69.7648H119.701C118.926 69.7648 118.432 69.7647 118.217 68.9565L116.131 62.426Z" fill="white"/>
<path d="M153.903 62.4243C154.835 62.0137 155.124 62.2732 155.433 63.0509L157.107 66.7682C157.564 67.7408 157.419 68.1083 156.818 68.4755C153.337 70.5244 149.38 71.5267 145.384 71.3716C134.613 71.3716 129.794 64.3911 129.794 52.9153C129.794 41.4399 136.246 34.0922 145.735 34.0922C149.091 33.9337 152.43 34.6778 155.433 36.2532C156.178 36.6854 156.281 36.9449 155.825 38.0686L154.295 41.6344C153.944 42.5636 153.758 42.7797 152.806 42.4125C150.666 41.5354 148.387 41.0811 146.088 41.0723C140.627 41.0723 137.712 46.1294 137.712 52.8722C137.712 59.6151 139.782 64.175 146.275 64.175C148.904 64.0896 151.492 63.4811 153.903 62.3812" fill="white"/>
<path d="M183.33 45.9265L178.697 53.554L169.995 67.4702C168.798 69.3611 168.233 69.5947 166.079 69.5947H164.013C161.294 69.5947 160.621 68.2352 160.621 66.0892V35.0487C160.621 34.3264 160.945 34.0713 161.706 34.0713H167.276C168.233 34.0713 168.386 34.284 168.386 35.0487V57.973H168.69L173.042 50.8558L182.048 36.4297C183.246 34.4964 183.831 34.1352 185.9 34.1352H188.075C190.618 34.1352 191.447 35.0487 191.447 37.7045V68.8086C191.447 69.5097 191.142 69.7648 190.358 69.7648H184.788C183.854 69.7648 183.638 69.5735 183.638 68.8086V45.9265H183.33Z" fill="white"/>
<path d="M46.8707 8.94922L78.1282 26.9206L93.7415 17.888L46.8707 8.94922Z" fill="white" fill-opacity="0.7"/>
<path d="M0 0L31.2577 17.9713L46.8708 8.94916L0 0Z" fill="white" fill-opacity="0.7"/>
<path d="M31.2786 35.9946L62.5362 53.966L78.1495 44.944L31.2786 35.9946Z" fill="white" fill-opacity="0.7"/>
<path d="M93.7417 17.8882L78.1495 44.9442L78.1286 26.9207L93.7417 17.8882Z" fill="white"/>
<path d="M78.1493 44.9438L62.5571 71.9998L62.5361 53.9659L78.1493 44.9438Z" fill="white"/>
<path d="M46.8708 8.94922L31.2786 35.9948L31.2576 17.9712L46.8708 8.94922Z" fill="white"/>
</svg>
