<svg width="121" height="78" viewBox="0 0 121 78" fill="none" xmlns="http://www.w3.org/2000/svg">
<path d="M4 64.8012H5.37983L8.62428 73.0229H8.73616L11.9806 64.8012H13.3604V74.706H12.279V67.1807H12.1857L9.20231 74.706H8.15812L5.17472 67.1807H5.08148V74.706H4V64.8012Z" fill="white"/>
<path d="M18.4381 74.8607C17.7916 74.8607 17.2245 74.7011 16.7366 74.382C16.2518 74.0628 15.8726 73.6162 15.5992 73.0423C15.3288 72.4684 15.1936 71.7977 15.1936 71.0304C15.1936 70.2566 15.3288 69.5811 15.5992 69.004C15.8726 68.4268 16.2518 67.9787 16.7366 67.6595C17.2245 67.3403 17.7916 67.1807 18.4381 67.1807C19.0845 67.1807 19.6501 67.3403 20.1349 67.6595C20.6228 67.9787 21.0019 68.4268 21.2723 69.004C21.5458 69.5811 21.6825 70.2566 21.6825 71.0304C21.6825 71.7977 21.5458 72.4684 21.2723 73.0423C21.0019 73.6162 20.6228 74.0628 20.1349 74.382C19.6501 74.7011 19.0845 74.8607 18.4381 74.8607ZM18.4381 73.8354C18.9291 73.8354 19.3331 73.7049 19.6501 73.4437C19.967 73.1825 20.2017 72.8392 20.354 72.4136C20.5062 71.988 20.5824 71.5269 20.5824 71.0304C20.5824 70.5339 20.5062 70.0712 20.354 69.6424C20.2017 69.2135 19.967 68.8669 19.6501 68.6026C19.3331 68.3382 18.9291 68.206 18.4381 68.206C17.947 68.206 17.543 68.3382 17.226 68.6026C16.9091 68.8669 16.6744 69.2135 16.5221 69.6424C16.3699 70.0712 16.2937 70.5339 16.2937 71.0304C16.2937 71.5269 16.3699 71.988 16.5221 72.4136C16.6744 72.8392 16.9091 73.1825 17.226 73.4437C17.543 73.7049 17.947 73.8354 18.4381 73.8354Z" fill="white"/>
<path d="M26.2707 74.8607C25.5994 74.8607 25.0214 74.6963 24.5366 74.3674C24.0518 74.0386 23.6788 73.5856 23.4178 73.0084C23.1567 72.4313 23.0262 71.772 23.0262 71.0304C23.0262 70.2759 23.1598 69.6101 23.4271 69.033C23.6975 68.4526 24.0735 67.9996 24.5552 67.674C25.04 67.3451 25.6056 67.1807 26.252 67.1807C26.7555 67.1807 27.2092 67.2774 27.6132 67.4709C28.0172 67.6643 28.3482 67.9352 28.6061 68.2834C28.864 68.6316 29.0241 69.0378 29.0862 69.5021H27.9861C27.9022 69.1636 27.7157 68.8637 27.4267 68.6026C27.1408 68.3382 26.7555 68.206 26.2707 68.206C25.8418 68.206 25.4658 68.3221 25.1426 68.5542C24.8225 68.7831 24.5723 69.1072 24.392 69.5263C24.2149 69.9422 24.1263 70.4307 24.1263 70.9917C24.1263 71.5656 24.2134 72.0654 24.3874 72.491C24.5645 72.9166 24.8131 73.247 25.1332 73.4824C25.4564 73.7178 25.8356 73.8354 26.2707 73.8354C26.5566 73.8354 26.8161 73.7839 27.0491 73.6807C27.2822 73.5775 27.4796 73.4292 27.6412 73.2357C27.8028 73.0423 27.9177 72.8102 27.9861 72.5393H29.0862C29.0241 72.9778 28.8703 73.3728 28.6248 73.7242C28.3824 74.0724 28.0607 74.3497 27.6598 74.5561C27.262 74.7592 26.799 74.8607 26.2707 74.8607Z" fill="white"/>
<path d="M30.1304 68.3414V67.2774H35.9481V68.3414H33.5986V74.706H32.4985V68.3414H30.1304Z" fill="white"/>
<path d="M38.5038 69.9664H40.5549C41.394 69.9664 42.0357 70.1873 42.4801 70.629C42.9245 71.0707 43.1467 71.6301 43.1467 72.3072C43.1467 72.7521 43.0473 73.1568 42.8484 73.5211C42.6495 73.8822 42.3574 74.1708 41.972 74.3868C41.5866 74.5996 41.1143 74.706 40.5549 74.706H37.5528V67.2774H38.653V73.642H40.5549C40.99 73.642 41.3473 73.5227 41.627 73.2841C41.9067 73.0455 42.0466 72.7392 42.0466 72.3652C42.0466 71.9719 41.9067 71.651 41.627 71.4028C41.3473 71.1545 40.99 71.0304 40.5549 71.0304H38.5038V69.9664ZM44.2841 74.706V67.2774H45.3843V74.706H44.2841Z" fill="white"/>
<path d="M51.09 74.706V67.2774H54.0175C54.7882 67.2774 55.4004 67.458 55.8542 67.8191C56.3079 68.1802 56.5347 68.6574 56.5347 69.2506C56.5347 69.702 56.4058 70.0518 56.1478 70.3001C55.8899 70.5451 55.5589 70.7112 55.1549 70.7982C55.4191 70.8369 55.6755 70.9337 55.9241 71.0884C56.1758 71.2432 56.384 71.456 56.5487 71.7268C56.7134 71.9944 56.7958 72.3233 56.7958 72.7134C56.7958 73.0939 56.7026 73.434 56.5161 73.7339C56.3296 74.0337 56.0624 74.2707 55.7143 74.4448C55.3662 74.6189 54.9498 74.706 54.465 74.706H51.09ZM52.1342 73.6613H54.465C54.8441 73.6613 55.1409 73.5678 55.3554 73.3808C55.5698 73.1938 55.677 72.9391 55.677 72.6167C55.677 72.233 55.5698 71.9316 55.3554 71.7123C55.1409 71.4898 54.8441 71.3786 54.465 71.3786H52.1342V73.6613ZM52.1342 70.392H54.0175C54.3127 70.392 54.566 70.3501 54.7773 70.2663C54.9887 70.1792 55.1503 70.0567 55.2621 69.8987C55.3771 69.7375 55.4346 69.5473 55.4346 69.328C55.4346 69.0153 55.3088 68.7702 55.057 68.5929C54.8053 68.4123 54.4588 68.3221 54.0175 68.3221H52.1342V70.392Z" fill="white"/>
<path d="M67.4673 64.4917L68.0267 65.1881C67.8091 65.4074 67.5574 65.5605 67.2715 65.6476C66.9856 65.7346 66.6624 65.7878 66.3019 65.8072C65.9414 65.8265 65.5405 65.8459 65.0992 65.8652C64.602 65.8846 64.1902 66.0103 63.8639 66.2424C63.5376 66.4746 63.2859 66.8099 63.1087 67.2484C62.9316 67.6869 62.8182 68.2253 62.7684 68.8637H62.8617C63.1041 68.3994 63.4397 68.0577 63.8686 67.8384C64.2974 67.6192 64.7574 67.5096 65.2484 67.5096C65.8078 67.5096 66.3112 67.645 66.7587 67.9158C67.2063 68.1866 67.5605 68.5881 67.8216 69.12C68.0826 69.652 68.2132 70.3082 68.2132 71.0884C68.2132 71.8655 68.0795 72.5361 67.8123 73.1003C67.5481 73.6646 67.1767 74.0998 66.6981 74.4061C66.2227 74.7092 65.6648 74.8607 65.0246 74.8607C64.3844 74.8607 63.8235 74.7044 63.3418 74.3916C62.8601 74.0757 62.4856 73.6081 62.2184 72.9891C61.9511 72.3668 61.8175 71.5978 61.8175 70.6822V69.889C61.8175 68.235 62.0878 66.9808 62.6286 66.1264C63.1724 65.272 63.9898 64.8302 65.0806 64.8012C65.4659 64.7883 65.8093 64.7851 66.1108 64.7915C66.4122 64.798 66.6748 64.7835 66.8986 64.748C67.1223 64.7126 67.3119 64.6271 67.4673 64.4917ZM65.0246 73.8354C65.4566 73.8354 65.828 73.7226 66.1388 73.4969C66.4526 73.2712 66.6935 72.9536 66.8613 72.5442C67.0291 72.1315 67.113 71.6462 67.113 71.0884C67.113 70.5468 67.0276 70.0857 66.8566 69.7052C66.6888 69.3248 66.448 69.0346 66.1341 68.8347C65.8202 68.6348 65.4442 68.5349 65.006 68.5349C64.6859 68.5349 64.3984 68.5913 64.1436 68.7041C63.8888 68.817 63.6712 68.983 63.491 69.2023C63.3107 69.4215 63.1709 69.6891 63.0714 70.0051C62.9751 70.3211 62.9238 70.6822 62.9176 71.0884C62.9176 71.9203 63.1056 72.5861 63.4817 73.0858C63.8577 73.5856 64.372 73.8354 65.0246 73.8354Z" fill="white"/>
<path d="M70.6045 77.4917C70.4181 77.4917 70.2518 77.4756 70.1057 77.4433C69.9597 77.4143 69.8587 77.3853 69.8027 77.3563L70.0824 76.3503C70.3497 76.4213 70.5859 76.4471 70.791 76.4277C70.9961 76.4084 71.1779 76.3133 71.3364 76.1424C71.498 75.9747 71.6456 75.7023 71.7793 75.325L71.9844 74.7447L69.3366 67.2774H70.53L72.5065 73.1971H72.581L74.5575 67.2774H75.7509L72.7116 75.7893C72.5748 76.173 72.4055 76.4906 72.2035 76.7421C72.0015 76.9968 71.7668 77.1854 71.4996 77.3079C71.2354 77.4304 70.9371 77.4917 70.6045 77.4917Z" fill="white"/>
<path d="M75.836 76.834V73.642H76.4327C76.5787 73.484 76.7046 73.3131 76.8103 73.1293C76.9159 72.9456 77.0076 72.7279 77.0853 72.4764C77.1661 72.2217 77.2345 71.9122 77.2904 71.5479C77.3463 71.1803 77.3961 70.737 77.4396 70.2179L77.682 67.2774H82.2317V73.642H83.3318V76.834H82.2317V74.706H76.9361V76.834H75.836ZM77.682 73.642H81.1315V68.3414H78.7075L78.521 70.2179C78.4434 70.9949 78.347 71.6736 78.232 72.254C78.117 72.8343 77.9337 73.297 77.682 73.642Z" fill="white"/>
<path d="M85.5006 77.4917C85.3141 77.4917 85.1479 77.4756 85.0018 77.4433C84.8557 77.4143 84.7547 77.3853 84.6988 77.3563L84.9785 76.3503C85.2458 76.4213 85.4819 76.4471 85.6871 76.4277C85.8922 76.4084 86.074 76.3133 86.2325 76.1424C86.3941 75.9747 86.5417 75.7023 86.6753 75.325L86.8804 74.7447L84.2326 67.2774H85.426L87.4025 73.1971H87.4771L89.4536 67.2774H90.647L87.6076 75.7893C87.4709 76.173 87.3015 76.4906 87.0995 76.7421C86.8975 76.9968 86.6629 77.1854 86.3956 77.3079C86.1315 77.4304 85.8331 77.4917 85.5006 77.4917Z" fill="white"/>
<path d="M101.87 73.642L101.739 76.834H100.602V74.706H99.6694V73.642H101.87ZM92.099 67.2774H93.1992V73.642H95.9029V67.2774H97.003V73.642H99.7067V67.2774H100.807V74.706H92.099V67.2774Z" fill="white"/>
<path d="M106.395 74.8607C105.705 74.8607 105.11 74.7028 104.61 74.3868C104.112 74.0676 103.729 73.6227 103.458 73.052C103.191 72.4781 103.057 71.8106 103.057 71.0497C103.057 70.2888 103.191 69.6182 103.458 69.0378C103.729 68.4542 104.105 67.9996 104.586 67.674C105.071 67.3451 105.637 67.1807 106.283 67.1807C106.656 67.1807 107.024 67.2452 107.388 67.3741C107.751 67.5031 108.082 67.7127 108.381 68.0029C108.679 68.2898 108.917 68.6703 109.094 69.1442C109.271 69.6182 109.36 70.2018 109.36 70.895V71.3786H103.84V70.392H108.241C108.241 69.9728 108.16 69.5988 107.999 69.27C107.84 68.9411 107.613 68.6816 107.318 68.4913C107.026 68.3011 106.681 68.206 106.283 68.206C105.845 68.206 105.466 68.3188 105.146 68.5445C104.829 68.767 104.585 69.0572 104.414 69.4151C104.243 69.7729 104.157 70.1566 104.157 70.5661V71.2238C104.157 71.7849 104.251 72.2604 104.437 72.6506C104.627 73.0375 104.889 73.3325 105.225 73.5356C105.56 73.7355 105.951 73.8354 106.395 73.8354C106.684 73.8354 106.945 73.7935 107.178 73.7097C107.414 73.6227 107.618 73.4937 107.789 73.3228C107.96 73.1487 108.092 72.9327 108.185 72.6747L109.248 72.9843C109.136 73.3583 108.948 73.6871 108.684 73.9709C108.42 74.2514 108.093 74.4706 107.705 74.6286C107.316 74.7834 106.88 74.8607 106.395 74.8607Z" fill="white"/>
<path d="M114.035 74.8607C113.345 74.8607 112.75 74.7028 112.25 74.3868C111.753 74.0676 111.369 73.6227 111.098 73.052C110.831 72.4781 110.698 71.8106 110.698 71.0497C110.698 70.2888 110.831 69.6182 111.098 69.0378C111.369 68.4542 111.745 67.9996 112.227 67.674C112.711 67.3451 113.277 67.1807 113.923 67.1807C114.296 67.1807 114.665 67.2452 115.028 67.3741C115.392 67.5031 115.723 67.7127 116.021 68.0029C116.319 68.2898 116.557 68.6703 116.734 69.1442C116.911 69.6182 117 70.2018 117 70.895V71.3786H111.481V70.392H115.881C115.881 69.9728 115.8 69.5988 115.639 69.27C115.48 68.9411 115.253 68.6816 114.958 68.4913C114.666 68.3011 114.321 68.206 113.923 68.206C113.485 68.206 113.106 68.3188 112.786 68.5445C112.469 68.767 112.225 69.0572 112.054 69.4151C111.883 69.7729 111.798 70.1566 111.798 70.5661V71.2238C111.798 71.7849 111.891 72.2604 112.077 72.6506C112.267 73.0375 112.53 73.3325 112.865 73.5356C113.201 73.7355 113.591 73.8354 114.035 73.8354C114.324 73.8354 114.585 73.7935 114.818 73.7097C115.055 73.6227 115.258 73.4937 115.429 73.3228C115.6 73.1487 115.732 72.9327 115.825 72.6747L116.888 72.9843C116.776 73.3583 116.588 73.6871 116.324 73.9709C116.06 74.2514 115.734 74.4706 115.345 74.6286C114.957 74.7834 114.52 74.8607 114.035 74.8607Z" fill="white"/>
<path d="M112.735 43.2593C109.113 36.8475 104.574 31.2267 98.8287 26.5636C87.6705 17.5288 74.8469 12.9074 60.4829 12.6992C54.6124 12.6992 48.8667 13.4902 43.246 15.114C28.7987 19.3608 17.5572 27.8959 9.31351 40.4281C8.39754 41.802 7.68974 43.3425 7.02358 44.8414C6.85704 45.1745 6.98195 45.8823 7.27339 46.1321C7.48157 46.3402 8.18936 46.257 8.52244 46.0072C10.7291 44.5916 12.8525 44.8414 15.0175 46.0488C15.3922 46.257 15.7669 46.4235 16.1 46.6317C16.9327 47.0897 17.7238 46.8399 18.4316 46.2986C19.1394 45.7573 18.8895 45.0912 18.5981 44.425C17.8487 42.5931 17.7654 40.6362 17.8903 38.6794C18.2234 34.2245 22.2203 31.4349 26.592 32.684C29.7979 33.5999 31.9629 35.7233 33.6283 38.5129C34.5443 40.0534 35.4603 40.3032 37.2922 39.5537C38.4164 39.0958 38.4996 38.9292 38 37.014C37.1673 33.7248 37.3338 30.5606 38.6245 27.438C40.7895 22.192 46.8266 20.1518 51.2816 23.7324C52.6972 24.8982 53.9046 26.3555 54.9454 27.8959C56.361 30.0193 56.8606 32.4758 57.0272 35.0155C57.1105 36.6809 57.3186 36.8891 59.0257 36.9307C60.0665 36.9724 61.1074 36.9724 62.1483 36.9307C63.8137 36.8891 63.9386 36.6393 64.1051 34.9739C64.2717 33.3918 64.4382 31.768 64.9378 30.3108C66.1452 26.7302 68.2686 23.9406 71.9325 22.525C75.3466 21.2343 79.0521 22.3169 81.1755 25.3146C83.6736 28.8952 84.2148 32.8921 83.0074 37.014C82.4245 38.9709 82.5078 39.3456 84.881 39.8868C85.9635 40.1366 86.7129 39.8035 87.2542 38.721C88.4616 36.2646 90.3352 34.4743 92.7916 33.2669C98.0793 30.7271 103.117 33.8081 103.325 39.6786C103.367 41.4273 103.034 43.0927 102.493 44.7581C102.076 46.0072 103.159 47.1729 104.408 46.8815C104.782 46.7982 105.116 46.4651 105.49 46.257C106.281 45.8406 107.031 45.2161 107.863 45.0079C109.362 44.6748 110.903 44.5499 112.11 45.8823C112.318 46.1321 113.068 46.2986 113.151 46.2153C113.401 45.8823 113.609 45.3826 113.526 45.0079C113.359 44.3834 113.026 43.8005 112.735 43.2593ZM60.4829 10.6591C63.3973 10.784 65.8122 8.2026 65.7705 5.16325C65.7289 2.45698 63.3141 -0.0411218 60.6078 0.000513197C57.2354 0.0837831 55.0287 2.58188 55.2785 5.37142C55.0703 8.2026 57.4852 10.5342 60.4829 10.6591ZM25.0515 20.9845C27.4664 21.0678 29.5481 18.9861 29.5897 16.5296C29.6314 14.0315 27.6329 11.9914 25.2181 11.9081C22.7616 11.8248 20.5549 14.198 20.6799 16.3631C20.8464 18.9028 22.5534 20.9013 25.0515 20.9845ZM95.5395 21.0678C97.9127 21.0262 99.9528 18.8612 99.9112 16.4047C99.8696 13.9899 97.7046 11.8665 95.3314 11.9498C92.8749 12.0747 91.0013 14.1564 91.0846 16.6545C91.1679 19.0277 93.2912 21.1094 95.5395 21.0678ZM10.3127 35.7233C10.3544 33.8497 8.85552 32.3093 6.89868 32.2676C5.0251 32.226 3.52624 33.5999 3.40134 35.3902C3.31807 37.1805 4.9002 38.9292 6.6905 39.0125C8.48081 39.0958 10.2711 37.472 10.3127 35.7233ZM113.692 32.5174C111.985 32.4758 110.362 34.0996 110.32 35.8066C110.278 37.5969 111.736 39.0541 113.567 39.0541C115.524 39.0958 116.898 37.8051 116.982 35.9731C117.065 33.9747 115.691 32.5591 113.692 32.5174Z" fill="white"/>
<path d="M120.104 60.0382C112.485 54.0012 104.158 49.338 95.0815 45.8407C84.1315 41.6356 72.8068 39.6371 61.1907 39.5122C56.0279 39.4706 50.8235 39.9702 45.7024 40.678C36.3762 41.9686 27.4663 44.7582 18.9728 48.7968C12.8108 51.7112 7.02355 55.2502 1.611 59.4137C0.778305 60.0382 -0.1793 60.5795 0.028875 61.8702C0.32032 61.8702 0.57013 61.8702 0.861575 61.8702C1.98572 61.204 3.06823 60.4546 4.23401 59.8301C11.4369 55.8747 19.0144 52.8354 26.8834 50.5455C33.7532 48.547 40.7479 47.1314 47.8675 46.5901C53.6547 46.1321 59.4836 46.0072 65.3125 46.1321C70.3503 46.2571 75.3882 46.7983 80.3844 47.5477C88.5032 48.7135 96.3722 50.8785 104.033 53.8346C109.737 56.0413 115.274 58.581 120.437 61.8702C120.562 61.8702 120.729 61.8702 120.854 61.8702C121.27 61.0375 120.729 60.5795 120.104 60.0382ZM36.2929 52.7521C37.2922 53.5848 37.2922 53.6264 38.1249 53.4183C46.4519 51.3365 54.9454 50.8369 63.4806 51.1283C67.0612 51.2533 70.6418 51.5447 74.2224 51.961C76.887 52.2525 79.5517 52.877 82.1747 53.3766C82.9241 53.5015 83.6735 53.8346 83.9233 52.7105C75.9711 47.5061 44.2452 47.5061 36.2929 52.7521Z" fill="white" fill-opacity="0.58"/>
</svg>
