<svg width="263" height="61" viewBox="0 0 263 61" fill="none" xmlns="http://www.w3.org/2000/svg">
<path d="M0 26.948C0 19.2067 6.39628 12.9038 14.2593 12.9038C22.1239 12.9038 28.517 19.2051 28.517 26.948C28.517 27.824 28.4255 28.6816 28.2703 29.5132C25.9824 28.5654 23.4758 28.0395 20.8449 28.0395C13.9116 28.0395 7.84285 31.6855 4.46699 37.1262C1.72285 34.5671 0 30.9548 0 26.948ZM23.9336 46.9558C23.9336 42.4186 25.5649 38.2544 28.2749 34.989C26.1082 33.6789 23.5673 32.91 20.8434 32.91C12.9804 32.91 6.58563 39.2083 6.58563 46.9558C6.58563 54.6971 12.9804 61 20.8434 61C23.5673 61 26.1082 60.2295 28.2749 58.9194C25.5649 55.6556 23.9336 51.4884 23.9336 46.9558ZM49.7407 45.8597C42.8012 45.8597 36.7309 42.2076 33.3565 36.7578C30.6046 39.3214 28.8802 42.9383 28.8802 46.9542C28.8802 54.6956 35.2734 60.9985 43.1364 60.9985C50.9995 60.9985 57.3973 54.6956 57.3973 46.9542C57.3973 46.0768 57.3026 45.2237 57.1474 44.3937C54.8642 45.3384 52.3638 45.8597 49.7407 45.8597ZM51.136 12.9757C51.1578 13.3349 51.195 13.685 51.195 14.0442C51.195 22.9061 44.9617 30.3464 36.5974 32.3872C38.7564 37.4396 43.8318 40.9923 49.7407 40.9923C57.6037 40.9923 64 34.6879 64 26.9465C63.9984 19.6714 58.3441 13.6682 51.136 12.9757ZM31.9891 0C26.0864 0 21.0079 3.55272 18.8474 8.60356C27.2226 10.6367 33.4621 18.0785 33.4621 26.948C33.4621 27.3042 33.4435 27.6604 33.4217 28.0181C40.6142 27.3058 46.2484 21.3102 46.2484 14.0442C46.2484 6.30286 39.8537 0 31.9891 0Z" fill="white"/>
<path d="M80 19.8409V11.1136H86.8636V19.8409H85.5227V12.3636H81.3409V19.8409H80Z" fill="white"/>
<path d="M89.3125 23.1136V11.1136H90.608V12.5H90.767C90.8655 12.3485 91.0019 12.1553 91.1761 11.9205C91.3542 11.6818 91.608 11.4697 91.9375 11.2841C92.2708 11.0947 92.7216 11 93.2898 11C94.0246 11 94.6723 11.1837 95.233 11.5511C95.7936 11.9186 96.2311 12.4394 96.5455 13.1136C96.8598 13.7879 97.017 14.5833 97.017 15.5C97.017 16.4242 96.8598 17.2254 96.5455 17.9034C96.2311 18.5777 95.7955 19.1004 95.2386 19.4716C94.6818 19.839 94.0398 20.0227 93.3125 20.0227C92.7519 20.0227 92.303 19.9299 91.9659 19.7443C91.6288 19.5549 91.3693 19.3409 91.1875 19.1023C91.0057 18.8598 90.8655 18.6591 90.767 18.5H90.6534V23.1136H89.3125ZM90.6307 15.4773C90.6307 16.1364 90.7273 16.7178 90.9205 17.2216C91.1136 17.7216 91.3958 18.1136 91.767 18.3977C92.1383 18.678 92.5928 18.8182 93.1307 18.8182C93.6913 18.8182 94.1591 18.6705 94.5341 18.375C94.9129 18.0758 95.197 17.6742 95.3864 17.1705C95.5795 16.6629 95.6761 16.0985 95.6761 15.4773C95.6761 14.8636 95.5814 14.3106 95.392 13.8182C95.2064 13.322 94.9242 12.9299 94.5455 12.642C94.1705 12.3504 93.6989 12.2045 93.1307 12.2045C92.5852 12.2045 92.1269 12.3428 91.7557 12.6193C91.3845 12.892 91.1042 13.2746 90.9148 13.767C90.7254 14.2557 90.6307 14.8258 90.6307 15.4773Z" fill="white"/>
<path d="M100.403 17.8636L104.608 11.1136H106.153V19.8409H104.812V13.0909L100.631 19.8409H99.0625V11.1136H100.403V17.8636Z" fill="white"/>
<path d="M113.109 19.8409V11.1136H119.973V19.8409H118.632V12.3636H114.45V19.8409H113.109Z" fill="white"/>
<path d="M125.967 20.0227C125.179 20.0227 124.488 19.8352 123.893 19.4602C123.303 19.0852 122.84 18.5606 122.507 17.8864C122.178 17.2121 122.013 16.4242 122.013 15.5227C122.013 14.6136 122.178 13.8201 122.507 13.142C122.84 12.464 123.303 11.9375 123.893 11.5625C124.488 11.1875 125.179 11 125.967 11C126.755 11 127.445 11.1875 128.036 11.5625C128.63 11.9375 129.092 12.464 129.422 13.142C129.755 13.8201 129.922 14.6136 129.922 15.5227C129.922 16.4242 129.755 17.2121 129.422 17.8864C129.092 18.5606 128.63 19.0852 128.036 19.4602C127.445 19.8352 126.755 20.0227 125.967 20.0227ZM125.967 18.8182C126.566 18.8182 127.058 18.6648 127.445 18.358C127.831 18.0511 128.117 17.6477 128.303 17.1477C128.488 16.6477 128.581 16.1061 128.581 15.5227C128.581 14.9394 128.488 14.3958 128.303 13.892C128.117 13.3883 127.831 12.9811 127.445 12.6705C127.058 12.3598 126.566 12.2045 125.967 12.2045C125.369 12.2045 124.876 12.3598 124.49 12.6705C124.104 12.9811 123.818 13.3883 123.632 13.892C123.446 14.3958 123.354 14.9394 123.354 15.5227C123.354 16.1061 123.446 16.6477 123.632 17.1477C123.818 17.6477 124.104 18.0511 124.49 18.358C124.876 18.6648 125.369 18.8182 125.967 18.8182Z" fill="white"/>
<path d="M131.037 22.3409V18.5909H131.764C131.942 18.4053 132.096 18.2045 132.224 17.9886C132.353 17.7727 132.465 17.517 132.56 17.2216C132.658 16.9223 132.741 16.5587 132.81 16.1307C132.878 15.6989 132.938 15.178 132.991 14.5682L133.287 11.1136H138.832V18.5909H140.173V22.3409H138.832V19.8409H132.378V22.3409H131.037ZM133.287 18.5909H137.491V12.3636H134.537L134.31 14.5682C134.215 15.4811 134.098 16.2784 133.957 16.9602C133.817 17.642 133.594 18.1856 133.287 18.5909Z" fill="white"/>
<path d="M141.021 22.3409V18.5909H141.749C141.927 18.4053 142.08 18.2045 142.209 17.9886C142.338 17.7727 142.449 17.517 142.544 17.2216C142.643 16.9223 142.726 16.5587 142.794 16.1307C142.862 15.6989 142.923 15.178 142.976 14.5682L143.271 11.1136H148.817V18.5909H150.158V22.3409H148.817V19.8409H142.362V22.3409H141.021ZM143.271 18.5909H147.476V12.3636H144.521L144.294 14.5682C144.199 15.4811 144.082 16.2784 143.942 16.9602C143.802 17.642 143.578 18.1856 143.271 18.5909Z" fill="white"/>
<path d="M155.597 20.0227C154.756 20.0227 154.03 19.8371 153.42 19.4659C152.814 19.0909 152.347 18.5682 152.017 17.8977C151.691 17.2235 151.528 16.4394 151.528 15.5455C151.528 14.6515 151.691 13.8636 152.017 13.1818C152.347 12.4962 152.805 11.9621 153.392 11.5795C153.983 11.1932 154.672 11 155.46 11C155.915 11 156.364 11.0758 156.807 11.2273C157.25 11.3788 157.653 11.625 158.017 11.9659C158.381 12.303 158.67 12.75 158.886 13.3068C159.102 13.8636 159.21 14.5492 159.21 15.3636V15.9318H152.483V14.7727H157.847C157.847 14.2803 157.748 13.8409 157.551 13.4545C157.358 13.0682 157.081 12.7633 156.722 12.5398C156.366 12.3163 155.945 12.2045 155.46 12.2045C154.926 12.2045 154.464 12.3371 154.074 12.6023C153.688 12.8636 153.39 13.2045 153.182 13.625C152.973 14.0455 152.869 14.4962 152.869 14.9773V15.75C152.869 16.4091 152.983 16.9678 153.21 17.4261C153.441 17.8807 153.761 18.2273 154.17 18.4659C154.58 18.7008 155.055 18.8182 155.597 18.8182C155.949 18.8182 156.267 18.7689 156.551 18.6705C156.839 18.5682 157.087 18.4167 157.295 18.2159C157.504 18.0114 157.665 17.7576 157.778 17.4545L159.074 17.8182C158.938 18.2576 158.708 18.6439 158.386 18.9773C158.064 19.3068 157.667 19.5644 157.193 19.75C156.72 19.9318 156.188 20.0227 155.597 20.0227Z" fill="white"/>
<path d="M161.25 23.1136V11.1136H162.545V12.5H162.705C162.803 12.3485 162.939 12.1553 163.114 11.9205C163.292 11.6818 163.545 11.4697 163.875 11.2841C164.208 11.0947 164.659 11 165.227 11C165.962 11 166.61 11.1837 167.17 11.5511C167.731 11.9186 168.169 12.4394 168.483 13.1136C168.797 13.7879 168.955 14.5833 168.955 15.5C168.955 16.4242 168.797 17.2254 168.483 17.9034C168.169 18.5777 167.733 19.1004 167.176 19.4716C166.619 19.839 165.977 20.0227 165.25 20.0227C164.689 20.0227 164.241 19.9299 163.903 19.7443C163.566 19.5549 163.307 19.3409 163.125 19.1023C162.943 18.8598 162.803 18.6591 162.705 18.5H162.591V23.1136H161.25ZM162.568 15.4773C162.568 16.1364 162.665 16.7178 162.858 17.2216C163.051 17.7216 163.333 18.1136 163.705 18.3977C164.076 18.678 164.53 18.8182 165.068 18.8182C165.629 18.8182 166.097 18.6705 166.472 18.375C166.85 18.0758 167.134 17.6742 167.324 17.1705C167.517 16.6629 167.614 16.0985 167.614 15.4773C167.614 14.8636 167.519 14.3106 167.33 13.8182C167.144 13.322 166.862 12.9299 166.483 12.642C166.108 12.3504 165.636 12.2045 165.068 12.2045C164.523 12.2045 164.064 12.3428 163.693 12.6193C163.322 12.892 163.042 13.2746 162.852 13.767C162.663 14.2557 162.568 14.8258 162.568 15.4773Z" fill="white"/>
<path d="M170.095 19.8409L173.641 15.4091L170.141 11.1136H171.732L174.641 14.8409H175.368V11.1136H176.709V14.8409H177.413L180.322 11.1136H181.913L178.436 15.4091L181.959 19.8409H180.345L177.391 16.0909H176.709V19.8409H175.368V16.0909H174.686L171.709 19.8409H170.095Z" fill="white"/>
<path d="M183.875 19.8409V11.1136H185.216V14.9091H186.102L189.239 11.1136H190.966L187.443 15.3182L191.011 19.8409H189.284L186.42 16.1591H185.216V19.8409H183.875Z" fill="white"/>
<path d="M195.768 20.0227C194.928 20.0227 194.202 19.8371 193.592 19.4659C192.986 19.0909 192.518 18.5682 192.189 17.8977C191.863 17.2235 191.7 16.4394 191.7 15.5455C191.7 14.6515 191.863 13.8636 192.189 13.1818C192.518 12.4962 192.977 11.9621 193.564 11.5795C194.155 11.1932 194.844 11 195.632 11C196.087 11 196.536 11.0758 196.979 11.2273C197.422 11.3788 197.825 11.625 198.189 11.9659C198.553 12.303 198.842 12.75 199.058 13.3068C199.274 13.8636 199.382 14.5492 199.382 15.3636V15.9318H192.655V14.7727H198.018C198.018 14.2803 197.92 13.8409 197.723 13.4545C197.53 13.0682 197.253 12.7633 196.893 12.5398C196.537 12.3163 196.117 12.2045 195.632 12.2045C195.098 12.2045 194.636 12.3371 194.246 12.6023C193.859 12.8636 193.562 13.2045 193.354 13.625C193.145 14.0455 193.041 14.4962 193.041 14.9773V15.75C193.041 16.4091 193.155 16.9678 193.382 17.4261C193.613 17.8807 193.933 18.2273 194.342 18.4659C194.751 18.7008 195.227 18.8182 195.768 18.8182C196.121 18.8182 196.439 18.7689 196.723 18.6705C197.011 18.5682 197.259 18.4167 197.467 18.2159C197.676 18.0114 197.837 17.7576 197.95 17.4545L199.246 17.8182C199.109 18.2576 198.88 18.6439 198.558 18.9773C198.236 19.3068 197.839 19.5644 197.365 19.75C196.892 19.9318 196.359 20.0227 195.768 20.0227Z" fill="white"/>
<path d="M80.2898 48.8409V31.3864H87.1761C88.5 31.3864 89.6278 31.6392 90.5597 32.1449C91.4915 32.6449 92.2017 33.3409 92.6903 34.233C93.1847 35.1193 93.4318 36.142 93.4318 37.3011C93.4318 38.4602 93.1818 39.483 92.6818 40.3693C92.1818 41.2557 91.4574 41.946 90.5085 42.4403C89.5653 42.9347 88.4233 43.1818 87.0824 43.1818H82.6932V40.2244H86.4858C87.196 40.2244 87.7812 40.1023 88.2415 39.858C88.7074 39.608 89.054 39.2642 89.2812 38.8267C89.5142 38.3835 89.6307 37.875 89.6307 37.3011C89.6307 36.7216 89.5142 36.2159 89.2812 35.7841C89.054 35.3466 88.7074 35.0085 88.2415 34.7699C87.7756 34.5256 87.1847 34.4034 86.4688 34.4034H83.9801V48.8409H80.2898Z" fill="white"/>
<path d="M111.869 40.1136C111.869 42.017 111.508 43.6364 110.786 44.9716C110.07 46.3068 109.093 47.3267 107.854 48.0312C106.621 48.7301 105.235 49.0795 103.695 49.0795C102.144 49.0795 100.752 48.7273 99.5192 48.0227C98.2862 47.3182 97.3118 46.2983 96.5959 44.9631C95.88 43.6278 95.522 42.0114 95.522 40.1136C95.522 38.2102 95.88 36.5909 96.5959 35.2557C97.3118 33.9205 98.2862 32.9034 99.5192 32.2045C100.752 31.5 102.144 31.1477 103.695 31.1477C105.235 31.1477 106.621 31.5 107.854 32.2045C109.093 32.9034 110.07 33.9205 110.786 35.2557C111.508 36.5909 111.869 38.2102 111.869 40.1136ZM108.127 40.1136C108.127 38.8807 107.942 37.8409 107.573 36.9943C107.21 36.1477 106.695 35.5057 106.031 35.0682C105.366 34.6307 104.587 34.4119 103.695 34.4119C102.803 34.4119 102.025 34.6307 101.36 35.0682C100.695 35.5057 100.178 36.1477 99.809 36.9943C99.4453 37.8409 99.2635 38.8807 99.2635 40.1136C99.2635 41.3466 99.4453 42.3864 99.809 43.233C100.178 44.0795 100.695 44.7216 101.36 45.1591C102.025 45.5966 102.803 45.8153 103.695 45.8153C104.587 45.8153 105.366 45.5966 106.031 45.1591C106.695 44.7216 107.21 44.0795 107.573 43.233C107.942 42.3864 108.127 41.3466 108.127 40.1136Z" fill="white"/>
<path d="M130.003 37.4972H126.27C126.202 37.0142 126.062 36.5852 125.852 36.2102C125.642 35.8295 125.372 35.5057 125.043 35.2386C124.713 34.9716 124.332 34.767 123.901 34.625C123.474 34.483 123.011 34.4119 122.511 34.4119C121.608 34.4119 120.821 34.6364 120.151 35.0852C119.48 35.5284 118.96 36.1761 118.591 37.0284C118.222 37.875 118.037 38.9034 118.037 40.1136C118.037 41.358 118.222 42.4034 118.591 43.25C118.966 44.0966 119.489 44.7358 120.159 45.1676C120.83 45.5994 121.605 45.8153 122.486 45.8153C122.98 45.8153 123.438 45.75 123.858 45.6193C124.284 45.4886 124.662 45.2983 124.991 45.0483C125.321 44.7926 125.594 44.483 125.81 44.1193C126.031 43.7557 126.185 43.3409 126.27 42.875L130.003 42.892C129.906 43.6932 129.665 44.4659 129.278 45.2102C128.898 45.9489 128.384 46.6108 127.736 47.196C127.094 47.7756 126.327 48.2358 125.435 48.5767C124.548 48.9119 123.545 49.0795 122.426 49.0795C120.869 49.0795 119.477 48.7273 118.25 48.0227C117.028 47.3182 116.062 46.2983 115.352 44.9631C114.648 43.6278 114.295 42.0114 114.295 40.1136C114.295 38.2102 114.653 36.5909 115.369 35.2557C116.085 33.9205 117.057 32.9034 118.284 32.2045C119.511 31.5 120.892 31.1477 122.426 31.1477C123.437 31.1477 124.375 31.2898 125.239 31.5739C126.108 31.858 126.878 32.2727 127.548 32.8182C128.219 33.358 128.764 34.0199 129.185 34.804C129.611 35.5881 129.884 36.4858 130.003 37.4972Z" fill="white"/>
<path d="M143.209 48.8409L137.601 41.4006H136.339V48.8409H132.649V31.3864H136.339V38.358H137.081L142.876 31.3864H147.47L140.661 39.483L147.786 48.8409H143.209Z" fill="white"/>
<path d="M164.697 40.1136C164.697 42.017 164.336 43.6364 163.614 44.9716C162.898 46.3068 161.921 47.3267 160.683 48.0312C159.45 48.7301 158.063 49.0795 156.523 49.0795C154.972 49.0795 153.58 48.7273 152.347 48.0227C151.114 47.3182 150.14 46.2983 149.424 44.9631C148.708 43.6278 148.35 42.0114 148.35 40.1136C148.35 38.2102 148.708 36.5909 149.424 35.2557C150.14 33.9205 151.114 32.9034 152.347 32.2045C153.58 31.5 154.972 31.1477 156.523 31.1477C158.063 31.1477 159.45 31.5 160.683 32.2045C161.921 32.9034 162.898 33.9205 163.614 35.2557C164.336 36.5909 164.697 38.2102 164.697 40.1136ZM160.955 40.1136C160.955 38.8807 160.771 37.8409 160.401 36.9943C160.038 36.1477 159.523 35.5057 158.859 35.0682C158.194 34.6307 157.415 34.4119 156.523 34.4119C155.631 34.4119 154.853 34.6307 154.188 35.0682C153.523 35.5057 153.006 36.1477 152.637 36.9943C152.273 37.8409 152.092 38.8807 152.092 40.1136C152.092 41.3466 152.273 42.3864 152.637 43.233C153.006 44.0795 153.523 44.7216 154.188 45.1591C154.853 45.5966 155.631 45.8153 156.523 45.8153C157.415 45.8153 158.194 45.5966 158.859 45.1591C159.523 44.7216 160.038 44.0795 160.401 43.233C160.771 42.3864 160.955 41.3466 160.955 40.1136Z" fill="white"/>
<path d="M167.43 48.8409V31.3864H171.121V38.5881H178.612V31.3864H182.294V48.8409H178.612V41.6307H171.121V48.8409H167.43Z" fill="white"/>
<path d="M196.919 31.3864V34.429H189.027V48.8409H185.337V31.3864H196.919Z" fill="white"/>
<path d="M199.282 48.8409V31.3864H206.168C207.492 31.3864 208.62 31.6392 209.552 32.1449C210.484 32.6449 211.194 33.3409 211.683 34.233C212.177 35.1193 212.424 36.142 212.424 37.3011C212.424 38.4602 212.174 39.483 211.674 40.3693C211.174 41.2557 210.45 41.946 209.501 42.4403C208.558 42.9347 207.415 43.1818 206.075 43.1818H201.685V40.2244H205.478C206.188 40.2244 206.773 40.1023 207.234 39.858C207.7 39.608 208.046 39.2642 208.273 38.8267C208.506 38.3835 208.623 37.875 208.623 37.3011C208.623 36.7216 208.506 36.2159 208.273 35.7841C208.046 35.3466 207.7 35.0085 207.234 34.7699C206.768 34.5256 206.177 34.4034 205.461 34.4034H202.972V48.8409H199.282Z" fill="white"/>
<path d="M214.821 48.8409V31.3864H226.582V34.429H218.511V38.5881H225.977V41.6307H218.511V45.7983H226.616V48.8409H214.821Z" fill="white"/>
<path d="M244.917 37.4972H241.184C241.116 37.0142 240.977 36.5852 240.766 36.2102C240.556 35.8295 240.286 35.5057 239.957 35.2386C239.627 34.9716 239.246 34.767 238.815 34.625C238.388 34.483 237.925 34.4119 237.425 34.4119C236.522 34.4119 235.735 34.6364 235.065 35.0852C234.394 35.5284 233.874 36.1761 233.505 37.0284C233.136 37.875 232.951 38.9034 232.951 40.1136C232.951 41.358 233.136 42.4034 233.505 43.25C233.88 44.0966 234.403 44.7358 235.073 45.1676C235.744 45.5994 236.519 45.8153 237.4 45.8153C237.894 45.8153 238.352 45.75 238.772 45.6193C239.198 45.4886 239.576 45.2983 239.906 45.0483C240.235 44.7926 240.508 44.483 240.724 44.1193C240.945 43.7557 241.099 43.3409 241.184 42.875L244.917 42.892C244.82 43.6932 244.579 44.4659 244.192 45.2102C243.812 45.9489 243.298 46.6108 242.65 47.196C242.008 47.7756 241.241 48.2358 240.349 48.5767C239.462 48.9119 238.46 49.0795 237.34 49.0795C235.783 49.0795 234.391 48.7273 233.164 48.0227C231.942 47.3182 230.977 46.2983 230.266 44.9631C229.562 43.6278 229.21 42.0114 229.21 40.1136C229.21 38.2102 229.567 36.5909 230.283 35.2557C230.999 33.9205 231.971 32.9034 233.198 32.2045C234.425 31.5 235.806 31.1477 237.34 31.1477C238.352 31.1477 239.289 31.2898 240.153 31.5739C241.022 31.858 241.792 32.2727 242.462 32.8182C243.133 33.358 243.678 34.0199 244.099 34.804C244.525 35.5881 244.798 36.4858 244.917 37.4972Z" fill="white"/>
<path d="M262.964 37.4972H259.231C259.163 37.0142 259.023 36.5852 258.813 36.2102C258.603 35.8295 258.333 35.5057 258.004 35.2386C257.674 34.9716 257.293 34.767 256.861 34.625C256.435 34.483 255.972 34.4119 255.472 34.4119C254.569 34.4119 253.782 34.6364 253.111 35.0852C252.441 35.5284 251.921 36.1761 251.552 37.0284C251.183 37.875 250.998 38.9034 250.998 40.1136C250.998 41.358 251.183 42.4034 251.552 43.25C251.927 44.0966 252.45 44.7358 253.12 45.1676C253.79 45.5994 254.566 45.8153 255.447 45.8153C255.941 45.8153 256.398 45.75 256.819 45.6193C257.245 45.4886 257.623 45.2983 257.952 45.0483C258.282 44.7926 258.555 44.483 258.771 44.1193C258.992 43.7557 259.146 43.3409 259.231 42.875L262.964 42.892C262.867 43.6932 262.626 44.4659 262.239 45.2102C261.859 45.9489 261.344 46.6108 260.697 47.196C260.055 47.7756 259.288 48.2358 258.396 48.5767C257.509 48.9119 256.506 49.0795 255.387 49.0795C253.83 49.0795 252.438 48.7273 251.211 48.0227C249.989 47.3182 249.023 46.2983 248.313 44.9631C247.609 43.6278 247.256 42.0114 247.256 40.1136C247.256 38.2102 247.614 36.5909 248.33 35.2557C249.046 33.9205 250.018 32.9034 251.245 32.2045C252.472 31.5 253.853 31.1477 255.387 31.1477C256.398 31.1477 257.336 31.2898 258.2 31.5739C259.069 31.858 259.839 32.2727 260.509 32.8182C261.18 33.358 261.725 34.0199 262.146 34.804C262.572 35.5881 262.844 36.4858 262.964 37.4972Z" fill="white"/>
</svg>
