<svg width="215" height="62" viewBox="0 0 215 62" fill="none" xmlns="http://www.w3.org/2000/svg">
<path d="M73.6083 45.7082V39.1296C73.6083 38.8177 73.6511 37.3932 73.6511 36.3722L70.5207 45.696H69.035L65.9108 36.3722H65.868C65.868 37.3748 65.9108 38.8177 65.9108 39.1296V45.7082H64.4618V34.6113H66.62L69.7381 44.0207H69.7687L72.9358 34.6358H75.0573V45.7082H73.6083Z" fill="white"/>
<path d="M80.4926 45.9473C77.9064 45.9473 76.7386 43.734 76.7386 41.6675C76.7386 39.601 77.9064 37.3877 80.4926 37.3877C83.0788 37.3877 84.2344 39.5704 84.2344 41.6675C84.2344 43.7646 83.0727 45.9473 80.4926 45.9473ZM80.4926 38.5677C78.5484 38.5677 78.1387 40.567 78.1387 41.6247C78.1387 42.6824 78.5484 44.7306 80.4926 44.7306C82.4369 44.7306 82.8404 42.713 82.8404 41.6247C82.8404 40.5364 82.4308 38.5677 80.4926 38.5677Z" fill="white"/>
<path d="M88.9483 45.9473C86.6861 45.9473 85.3349 44.2231 85.3349 41.8876C85.3349 39.3931 86.5577 37.3877 89.205 37.3877C91.3327 37.3877 92.1275 38.9284 92.2315 40.3346H90.917C90.9093 40.0947 90.8534 39.8588 90.7524 39.641C90.6515 39.4232 90.5078 39.228 90.3297 39.0671C90.1516 38.9061 89.9429 38.7827 89.7161 38.7043C89.4892 38.6258 89.2489 38.5939 89.0094 38.6105C87.3281 38.6105 86.7961 40.2185 86.7961 41.6675C86.7961 43.1165 87.1202 44.7734 88.9849 44.7734C89.902 44.7734 90.6846 44.0947 90.917 42.8597H92.2315C92.097 44.1375 91.3144 45.9473 88.9483 45.9473Z" fill="white"/>
<path d="M98.7061 45.7089L96.0894 41.5759L94.9399 42.6458V45.7028H93.5826V37.6201H94.9399V41.1357L98.4127 37.6201H100.131L97.0737 40.6282L100.345 45.7089H98.7061Z" fill="white"/>
<path d="M104.331 45.9473C101.739 45.9473 100.583 43.734 100.583 41.6675C100.583 39.601 101.739 37.3877 104.331 37.3877C106.923 37.3877 108.073 39.5704 108.073 41.6675C108.073 43.7646 106.911 45.9473 104.331 45.9473ZM104.331 38.5677C102.387 38.5677 101.971 40.567 101.971 41.6247C101.971 42.6824 102.387 44.7306 104.331 44.7306C106.275 44.7306 106.679 42.713 106.679 41.6247C106.679 40.5364 106.269 38.5677 104.331 38.5677Z" fill="white"/>
<path d="M113.441 45.7089H109.613V37.6201H113.282C115.067 37.6201 115.929 38.5678 115.929 39.6805C115.933 40.0833 115.801 40.4756 115.553 40.7932C115.306 41.1108 114.957 41.335 114.566 41.4291C115.082 41.4955 115.556 41.7511 115.894 42.1464C116.233 42.5417 116.413 43.0486 116.4 43.569C116.406 44.8468 115.367 45.7089 113.441 45.7089ZM112.982 38.7512H110.983V40.9645H112.952C114.132 40.9645 114.572 40.6282 114.572 39.7417C114.572 39.1303 114.174 38.7512 112.982 38.7512ZM113.276 42.0405H110.983V44.5717H113.429C114.48 44.5717 115.061 44.2232 115.061 43.3489C115.061 42.4746 114.37 42.0405 113.276 42.0405Z" fill="white"/>
<path d="M121.12 45.9473C118.852 45.9473 117.507 44.2231 117.507 41.8876C117.507 39.3931 118.729 37.3877 121.371 37.3877C123.504 37.3877 124.299 38.9284 124.428 40.3346H123.119C123.11 40.0947 123.053 39.8591 122.951 39.6417C122.849 39.4242 122.705 39.2294 122.526 39.0687C122.348 38.908 122.139 38.7847 121.912 38.706C121.685 38.6273 121.445 38.5948 121.206 38.6105C119.518 38.6105 118.986 40.2185 118.986 41.6675C118.986 43.1165 119.322 44.7734 121.187 44.7734C122.104 44.7734 122.887 44.0947 123.119 42.8597H124.428C124.263 44.1375 123.48 45.9473 121.12 45.9473Z" fill="white"/>
<path d="M130.872 45.7089L128.261 41.5759L127.112 42.6458V45.7028H125.754V37.6201H127.112V41.1357L130.584 37.6201H132.309L129.221 40.6282L132.498 45.7089H130.872Z" fill="white"/>
<path d="M139.988 45.8553C138.765 45.8553 138.606 45.2439 138.551 44.6325C138.191 45.0545 137.743 45.3917 137.237 45.62C136.732 45.8483 136.183 45.9621 135.628 45.9531C135.305 45.9814 134.979 45.9414 134.671 45.8358C134.364 45.7302 134.082 45.5613 133.844 45.3401C133.606 45.1188 133.418 44.8501 133.29 44.5513C133.162 44.2525 133.099 43.9302 133.103 43.6053C133.103 42.6393 133.342 41.2209 136.191 41.0008C138.319 40.8357 138.471 40.6706 138.471 39.8269C138.471 38.9832 137.86 38.5246 136.594 38.5246C135.041 38.5246 134.834 39.4784 134.76 40.0837H133.537C133.537 38.1395 134.87 37.3936 136.87 37.3936C137.518 37.3936 139.871 37.5831 139.871 39.6557V44.2657C139.871 44.6019 140.037 44.7792 140.312 44.7792C140.462 44.7696 140.611 44.7471 140.758 44.712V45.7086C140.51 45.7969 140.25 45.8464 139.988 45.8553ZM138.471 41.5755C138.257 41.7467 137.921 41.869 136.24 42.083C135.549 42.1869 134.485 42.3581 134.485 43.4097C134.463 43.6077 134.487 43.8081 134.555 43.9955C134.623 44.1828 134.733 44.3521 134.876 44.4903C135.02 44.6285 135.193 44.7319 135.383 44.7926C135.573 44.8533 135.774 44.8696 135.971 44.8404C137.236 44.8404 138.459 44.0272 138.459 42.945L138.471 41.5755Z" fill="white"/>
<path d="M146.768 45.7089V42.2973H145.032L143.124 45.7089H141.577L143.577 42.2484C143.057 42.1364 142.591 41.8495 142.257 41.4356C141.923 41.0217 141.742 40.5058 141.742 39.974C141.742 38.4455 142.843 37.6201 144.665 37.6201H148.101V45.7089H146.768ZM146.768 38.7512H144.634C143.644 38.7512 143.124 39.1792 143.124 39.974C143.124 40.7688 143.644 41.1968 144.634 41.1968H146.768V38.7512Z" fill="white"/>
<path d="M154.392 45.7089V37.6201H155.756V44.5717H159.167V37.6201H160.531V44.5717H163.936V37.6201H165.293V45.7089H154.392Z" fill="white"/>
<path d="M172.392 45.7089L169.793 41.5759L168.65 42.6458V45.7028H167.287V37.6201H168.65V41.1357L172.117 37.6201H173.841L170.753 40.6282L174.03 45.7089H172.392Z" fill="white"/>
<path d="M178.029 45.9473C175.449 45.9473 174.281 43.734 174.281 41.6675C174.281 39.601 175.449 37.3877 178.029 37.3877C180.609 37.3877 181.771 39.5704 181.771 41.6675C181.771 43.7646 180.621 45.9473 178.029 45.9473ZM178.029 38.5677C176.097 38.5677 175.675 40.567 175.675 41.6247C175.675 42.6824 176.097 44.7306 178.029 44.7306C179.961 44.7306 180.383 42.713 180.383 41.6247C180.383 40.5364 179.967 38.5677 178.029 38.5677Z" fill="white"/>
<path d="M188.349 45.7089V38.7512H185.158V42.4196C185.158 44.8652 184.345 45.819 183.061 45.819C182.764 45.8187 182.47 45.7755 182.186 45.6906V44.6328C182.29 44.6328 182.51 44.6328 182.743 44.6328C183.501 44.6328 183.794 44.3027 183.794 41.9244V37.6201H189.713V45.7089H188.349Z" fill="white"/>
<path d="M198.138 45.8555C196.915 45.8555 196.762 45.2441 196.695 44.6328C196.337 45.0522 195.892 45.3875 195.39 45.6147C194.888 45.842 194.342 45.9555 193.791 45.9473C193.467 45.9755 193.141 45.9355 192.834 45.83C192.526 45.7244 192.245 45.5555 192.007 45.3342C191.769 45.113 191.58 44.8443 191.452 44.5455C191.324 44.2466 191.261 43.9244 191.266 43.5995C191.266 42.6335 191.51 41.215 194.359 40.9949C196.481 40.8299 196.634 40.6648 196.634 39.8211C196.634 38.9773 196.022 38.5188 194.757 38.5188C193.204 38.5188 193.002 39.4726 192.922 40.0778H191.651C191.651 38.1336 192.99 37.3877 194.983 37.3877C195.637 37.3877 197.979 37.5772 197.979 39.6499V44.2659C197.979 44.6022 198.15 44.7795 198.425 44.7795C198.575 44.7698 198.725 44.7473 198.871 44.7122V45.7088C198.636 45.7951 198.388 45.8446 198.138 45.8555ZM196.621 41.5758C196.407 41.747 196.071 41.8692 194.396 42.0832C193.717 42.1749 192.647 42.3584 192.647 43.3794C192.626 43.5768 192.65 43.7766 192.717 43.9634C192.785 44.1502 192.894 44.3191 193.037 44.4572C193.179 44.5953 193.352 44.6988 193.541 44.76C193.73 44.8211 193.93 44.8383 194.127 44.8101C195.405 44.8101 196.621 43.9969 196.621 42.9147V41.5758Z" fill="white"/>
<path d="M68.5032 60.0764C67.8918 61.4643 67.5555 61.9106 65.9964 61.9106C65.7874 61.8982 65.5814 61.855 65.385 61.7822V60.5289C65.6524 60.6219 65.9335 60.6694 66.2165 60.6695C66.9013 60.6695 66.993 60.4677 67.6533 58.8047L64.6575 50.502H66.1982L68.3503 57.0806H68.3809L70.5391 50.502H72.037C71.1199 53.1921 69.6281 57.4719 68.5032 60.0764Z" fill="white"/>
<path d="M78.365 58.6093V51.6455H74.5988V58.6093H73.2292V50.5205H79.7345V58.6093H78.365Z" fill="white"/>
<path d="M85.2675 58.8417C84.8308 58.8623 84.3967 58.7632 84.0121 58.5553C83.6275 58.3474 83.3069 58.0384 83.0849 57.6617V61.8009H81.7153V50.5206H82.9931V51.6639C83.2315 51.229 83.587 50.8696 84.0192 50.6264C84.4515 50.3833 84.9433 50.2661 85.4387 50.2883C87.5786 50.2883 88.777 52.0308 88.777 54.3235C88.777 56.2494 88.0188 58.8417 85.2675 58.8417ZM85.2981 51.505C83.1827 51.505 83.0849 53.4859 83.0849 54.562C83.0849 56.3167 83.7696 57.6862 85.2492 57.6862C86.1113 57.6862 87.3952 57.0748 87.3952 54.941C87.4074 53.5898 87.2546 51.505 85.2981 51.505Z" fill="white"/>
<path d="M96.768 58.7562C95.5452 58.7562 95.3923 58.1448 95.3251 57.5334C94.9665 57.9562 94.5181 58.2937 94.0125 58.5211C93.5069 58.7485 92.9569 58.8602 92.4026 58.8479C92.0802 58.8752 91.7556 58.8348 91.4498 58.7291C91.144 58.6234 90.8637 58.4548 90.627 58.2342C90.3903 58.0136 90.2024 57.7459 90.0754 57.4483C89.9484 57.1507 89.8852 56.8298 89.8898 56.5062C89.8898 55.5402 90.1282 54.1157 92.9467 53.8956C95.0744 53.7366 95.2273 53.5715 95.2273 52.7278C95.2273 51.8841 94.6159 51.4255 93.3442 51.4255C91.8034 51.4255 91.5833 52.3793 91.51 52.9846H90.2872C90.2872 51.0403 91.6078 50.2944 93.6193 50.2944C94.2613 50.2944 96.6151 50.4779 96.6151 52.5566V57.1665C96.6151 57.5089 96.7802 57.6862 97.0614 57.6862C97.2098 57.6765 97.3571 57.654 97.5016 57.619V58.6155C97.2655 58.6987 97.0182 58.7461 96.768 58.7562ZM95.2517 54.4764C95.0438 54.6415 94.7076 54.7699 93.0201 54.9838C92.3476 55.0756 91.2776 55.259 91.2776 56.28C91.2583 56.4767 91.2837 56.6752 91.352 56.8607C91.4204 57.0462 91.5299 57.2137 91.6722 57.3508C91.8146 57.4879 91.9862 57.5909 92.1741 57.6522C92.362 57.7135 92.5614 57.7314 92.7572 57.7046C94.0289 57.7046 95.2517 56.8914 95.2517 55.8092V54.4764Z" fill="white"/>
<path d="M102.729 58.6093H98.914V50.5205H102.582C104.368 50.5205 105.23 51.4621 105.23 52.5809C105.232 52.9843 105.097 53.3764 104.847 53.693C104.597 54.0096 104.247 54.2319 103.854 54.3234C104.371 54.3912 104.844 54.648 105.183 55.0443C105.522 55.4406 105.702 55.9483 105.688 56.4694C105.694 57.7472 104.655 58.6093 102.729 58.6093ZM102.277 51.6455H100.247V53.8587H102.228C103.402 53.8587 103.836 53.5286 103.836 52.6359C103.854 51.9695 103.463 51.6455 102.277 51.6455ZM102.564 54.9409H100.247V57.4721H102.692C103.75 57.4721 104.331 57.1236 104.331 56.2493C104.331 55.375 103.665 54.9409 102.564 54.9409Z" fill="white"/>
<path d="M112.603 58.6093V51.6455H109.418V55.3139C109.418 57.7595 108.605 58.7071 107.321 58.7071C107.023 58.708 106.727 58.6669 106.44 58.5848V57.5577C106.55 57.5577 106.771 57.5577 107.003 57.5577C107.755 57.5577 108.054 57.2214 108.054 54.8492V50.5205H113.973V58.6093H112.603Z" fill="white"/>
<path d="M116.969 55.0264C116.969 56.6894 117.751 57.6737 119.31 57.6737C120.576 57.6737 121.389 56.6711 121.389 56.078H122.752C122.441 57.3375 121.603 58.8537 119.084 58.8537C116.822 58.8537 115.489 57.1357 115.489 54.7941C115.489 52.2751 116.712 50.3003 119.365 50.3003C121.682 50.3003 122.832 52.1345 122.832 55.0264H116.969ZM119.2 51.5047C118.584 51.5426 118.008 51.8195 117.593 52.2763C117.179 52.7331 116.959 53.3338 116.981 53.9503H121.481C121.389 52.6725 120.851 51.5047 119.2 51.5047Z" fill="white"/>
<path d="M129.545 58.6093V54.9042H125.76V58.6093H124.397V50.5205H125.76V53.8037H129.545V50.5205H130.902V58.6093H129.545Z" fill="white"/>
<path d="M138.3 58.6093V52.5809H138.27L134.314 58.6399H132.883V50.5205H134.241V56.5733H134.277L138.239 50.5205H139.658V58.6093H138.3Z" fill="white"/>
<path d="M146.297 58.6093V55.1916H144.579L142.66 58.6093H141.113L143.118 55.1488C142.599 55.0358 142.134 54.7486 141.8 54.3349C141.466 53.9212 141.284 53.4059 141.284 52.8744C141.284 51.3459 142.397 50.5205 144.212 50.5205H147.655V58.6093H146.297ZM146.297 51.6455H144.17C143.179 51.6455 142.66 52.0735 142.66 52.8683C142.66 53.6631 143.179 54.0911 144.17 54.0911H146.297V51.6455Z" fill="white"/>
<path d="M78.5912 16.4649C77.8697 13.0655 75.0573 12.448 73.1926 12.448C69.7137 12.448 66.8952 15.0342 66.8952 20.1027C66.8952 24.6515 68.4909 28.1365 73.2781 28.1365C74.9717 28.1365 77.9003 27.3356 78.7807 22.8479H81.2936C80.2297 30.1296 74.3359 30.4476 72.8685 30.4476C68.4848 30.4476 64.205 27.5985 64.205 20.1883C64.205 14.2578 67.5799 10.1431 73.1864 10.1431C78.1632 10.1431 80.7372 13.2001 81.1346 16.4649H78.5912Z" fill="white"/>
<path d="M86.9918 19.9984L96.3461 10.644H99.935L91.9074 18.4332L100.149 29.9581H96.7741L90.0488 20.2858L86.9918 23.1838V29.9581H84.3811V10.644H86.9918V19.9984Z" fill="white"/>
<path d="M110.139 30.4476C102.937 30.4476 100.754 24.4681 100.754 20.2923C100.754 16.1164 102.937 10.1431 110.139 10.1431C117.341 10.1431 119.524 16.1164 119.524 20.2923C119.524 24.4681 117.366 30.4476 110.139 30.4476ZM110.139 12.448C105.945 12.448 103.414 15.6946 103.414 20.2372C103.414 24.7799 105.921 28.1365 110.139 28.1365C114.358 28.1365 116.834 24.8411 116.834 20.2923C116.834 15.7435 114.339 12.448 110.139 12.448Z" fill="white"/>
<path d="M136.766 10.644V29.9581H134.161V12.9551H126.824V21.0133C126.824 28.4785 124.99 30.3433 122.306 30.3433C121.709 30.33 121.114 30.2666 120.527 30.1537V27.971C120.929 28.051 121.339 28.0879 121.75 28.0811C123.792 28.0811 124.195 25.5254 124.195 20.188V10.644H136.766Z" fill="white"/>
<path d="M143.307 19.9984L152.662 10.644H156.251L148.223 18.4332L156.495 29.9581H153.12L146.395 20.2858L143.338 23.1838V29.9581H140.734V10.644H143.338L143.307 19.9984Z" fill="white"/>
<path d="M166.455 30.4476C159.253 30.4476 157.107 24.4559 157.107 20.2923C157.107 16.1286 159.283 10.1431 166.486 10.1431C173.688 10.1431 175.871 16.1164 175.871 20.2923C175.871 24.4681 173.657 30.4476 166.455 30.4476ZM166.455 12.448C162.261 12.448 159.73 15.6946 159.73 20.2372C159.73 24.7799 162.261 28.1243 166.455 28.1243C170.649 28.1243 173.18 24.8288 173.18 20.28C173.18 15.7312 170.661 12.448 166.455 12.448Z" fill="white"/>
<path d="M179.001 10.644H187.487C191.1 10.644 192.928 12.8756 192.928 15.5352C192.949 16.3867 192.715 17.225 192.257 17.9427C191.798 18.6605 191.136 19.2251 190.355 19.5643C191.626 20.0718 193.864 20.9522 193.864 24.2476C193.864 27.3535 191.577 29.9581 187.298 29.9581H179.001V10.644ZM181.612 18.8062H186.313C188.808 18.8062 190.324 18.0603 190.324 15.6942C190.324 13.915 189.236 12.8756 186.338 12.8756H181.612V18.8062ZM181.612 27.7081H187.163C189.871 27.7081 191.259 26.3264 191.259 24.1743C191.259 21.4597 188.863 20.9339 186.741 20.9339H181.612V27.7081Z" fill="white"/>
<path d="M205.639 30.4476C198.437 30.4476 196.236 24.4559 196.236 20.2923C196.236 16.1286 198.419 10.1431 205.621 10.1431C212.823 10.1431 215 16.1164 215 20.2923C215 24.4681 212.842 30.4476 205.639 30.4476ZM205.639 12.448C201.439 12.448 198.914 15.6946 198.914 20.2372C198.914 24.7799 201.439 28.1243 205.639 28.1243C209.84 28.1243 212.334 24.8288 212.334 20.28C212.334 15.7312 209.84 12.448 205.639 12.448Z" fill="white"/>
<path d="M55.9634 10.7789C54.7511 8.79235 53.182 7.04703 51.3351 5.63097C49.4553 4.162 47.4019 2.92994 45.2211 1.96258C43.0948 0.982971 40.8234 0.355248 38.4958 0.103938C38.0433 0.0550257 37.6459 0 37.328 0H36.0013C32.1923 0.201761 29.1597 1.65077 26.977 4.31035C26.5917 4.78094 26.248 5.28418 25.9499 5.81439C24.4754 8.37916 23.6741 11.2754 23.6205 14.2333L23.5593 14.1966C21.1806 12.9317 18.6631 11.9469 16.0575 11.2619C13.3368 10.5527 9.8029 9.978 6.44633 10.5283C5.03775 10.7209 3.6845 11.204 2.47225 11.9467C1.32922 12.627 0.492652 13.722 0.136711 15.0037C-0.171145 16.5177 0.0444309 18.0914 0.748108 19.4669C1.30576 20.6435 2.02837 21.7347 2.89411 22.7073C4.587 24.6318 6.53984 26.3109 8.69627 27.6963C10.9247 29.16 13.2872 30.4088 15.7518 31.4258C18.4096 32.5501 21.1752 33.4003 24.0057 33.9631C27.0519 34.6051 30.182 34.7496 33.2744 34.3911L33.5435 34.3422L33.8125 34.4461H33.8553C33.9807 34.4622 34.1039 34.4929 34.2221 34.5378L34.4544 34.6051L34.7662 34.6723L35.0658 34.7396C35.1508 34.7952 35.2519 34.821 35.3532 34.813H35.396H35.6956C36.0685 34.813 36.4537 34.8558 36.8389 34.8558C37.0468 34.8558 37.2546 34.8558 37.4503 34.8558C38.1571 34.7987 38.8572 34.6758 39.5413 34.4889C41.3509 33.97 43.1041 33.2716 44.7748 32.404C45.319 32.1411 45.8814 31.8721 46.45 31.6153C46.6396 31.5298 46.8352 31.4319 47.0248 31.3341L47.2693 31.2057C47.3807 31.1506 47.495 31.1016 47.6117 31.059C47.784 30.9886 47.9515 30.9069 48.113 30.8144C48.1689 30.782 48.222 30.7452 48.272 30.7044C48.3393 30.6616 48.4004 30.6127 48.4677 30.576C48.8528 30.3742 49.2564 30.1419 49.6354 29.9034C52.9737 27.788 55.3092 25.3118 56.7827 22.3405C57.3862 21.1467 57.7615 19.8508 57.8893 18.5192C58.1234 15.7969 57.4459 13.0741 55.9634 10.7789ZM29.2148 30.955C28.6029 30.4039 28.0515 29.789 27.5701 29.1208C26.9763 28.3428 26.5042 27.479 26.17 26.5591C25.8002 25.5199 25.5439 24.4436 25.4058 23.3493C25.2651 22.371 25.1184 21.3316 25.0145 20.2556C26.2629 21.9595 27.7686 23.459 29.4777 24.7004L29.7283 24.8777C29.8862 24.9744 30.0337 25.0871 30.1685 25.214C29.9299 26.0799 29.7461 26.9601 29.6183 27.8491L29.5816 28.0876C29.5449 28.3199 29.496 28.5522 29.4532 28.7846C29.2831 29.4973 29.203 30.2285 29.2148 30.9612V30.955ZM50.1673 13.2245C50.5789 15.0299 50.6473 16.8965 50.3691 18.7271C50.068 20.2764 49.5964 21.7875 48.9629 23.2331C44.0834 22.0349 39.4549 19.9815 35.292 17.168C36.8213 14.3808 38.7217 11.8139 40.9414 9.5378C41.311 9.16227 41.7009 8.80713 42.1091 8.47396C42.4923 8.11186 42.949 7.8366 43.4481 7.66692C43.5732 7.64236 43.702 7.64236 43.8272 7.66692C43.9179 7.70757 44.0024 7.76111 44.0778 7.82588L44.249 7.95428C44.7236 8.27239 45.2296 8.54078 45.7592 8.75521C45.9795 8.83647 46.204 8.90587 46.4317 8.96308C46.6029 9.00588 46.7741 9.04868 46.9392 9.1037C47.302 9.21123 47.6524 9.35674 47.9847 9.5378C48.9873 10.1553 49.7516 11.4392 50.1673 13.2551V13.2245ZM31.8193 25.0673C32.5513 22.6926 33.518 20.3966 34.7051 18.2135C38.8949 21.0134 43.5301 23.0808 48.4126 24.3275C48.1187 24.8546 47.7834 25.3575 47.4099 25.8315C46.2081 27.4471 44.7646 28.868 43.1302 30.0441C39.0998 29.0536 35.2725 27.3696 31.8193 25.0673ZM26.812 7.64858L26.8792 7.55076C27.65 6.42302 28.6451 5.46634 29.8022 4.74049C30.9594 4.01463 32.2538 3.53519 33.6046 3.33211C34.2774 3.2204 34.9585 3.16518 35.6405 3.16704C36.3941 3.16305 37.146 3.23681 37.8844 3.38714C39.3529 3.69568 40.6973 4.4317 41.7484 5.50257C42.1961 5.9335 42.594 6.41341 42.9345 6.93324C42.2673 7.07254 41.6403 7.36098 41.1003 7.77697C39.7924 8.71822 38.6108 9.82372 37.5848 11.0663C36.1944 12.6586 34.9656 14.3851 33.9164 16.2204C31.7765 14.6613 29.5633 12.9372 27.8941 10.6077C27.4604 10.0425 27.097 9.42657 26.812 8.77355C26.7029 8.55284 26.6325 8.315 26.6041 8.07044C26.6454 7.91769 26.716 7.77442 26.812 7.64858ZM51.8793 8.62681C50.6874 8.21608 49.4348 8.00938 48.1742 8.01542C47.4424 8.00861 46.7128 8.09699 46.0037 8.27832L45.7531 8.16827L45.5941 8.08878L45.643 8.0521C46.4148 7.28292 47.27 6.60211 48.1925 6.02226C48.755 5.69211 49.3542 5.41086 49.9411 5.67988C50.1454 5.79467 50.3362 5.93208 50.5097 6.08952L50.7726 6.29739C52.2955 7.45605 53.6441 8.82734 54.7773 10.3693C53.9237 9.60671 52.9315 9.01516 51.8548 8.62681H51.8793ZM46.6212 6.11397C46.1016 6.58475 45.6247 7.10443 45.16 7.60578C45.0866 7.69138 45.0071 7.77697 44.9277 7.85645L44.6525 7.69138L44.4997 7.59967C44.304 4.95843 43.5765 3.05699 42.3353 1.87699C44.5248 2.57657 46.6179 3.54813 48.5655 4.7689C47.8361 5.08649 47.1756 5.54339 46.6212 6.11397ZM43.6254 7.0433C43.6184 6.94431 43.5891 6.84818 43.5398 6.76205V6.72537C43.1596 6.03933 42.6702 5.41982 42.0908 4.89118C41.5341 4.31211 40.8955 3.81775 40.1955 3.42382C38.5219 2.57989 36.6561 2.18987 34.7846 2.29274C33.3095 2.30628 31.8546 2.63644 30.5182 3.26088C29.1817 3.88532 27.995 4.78948 27.0382 5.91221C27.1482 5.74102 27.2705 5.56983 27.3867 5.39864C28.1855 4.30183 29.1907 3.37143 30.3458 2.65958C32.1463 1.59576 34.1916 1.0165 36.2825 0.978235C37.4049 0.936753 38.5285 1.01876 39.633 1.22279C40.4739 1.40652 41.2431 1.83146 41.8462 2.44559C42.4363 3.07229 42.8883 3.81589 43.173 4.62828C43.4995 5.44524 43.7233 6.29958 43.8394 7.17169L43.6254 7.0433ZM30.5476 24.1869C30.387 24.0807 30.2319 23.9665 30.0829 23.8445L29.82 23.6366C28.2677 22.5258 26.891 21.1883 25.7359 19.6686C25.3834 19.2043 25.0878 18.6993 24.8555 18.1646L24.8188 18.0607C24.7512 17.9075 24.7 17.7477 24.666 17.5838C24.6442 17.2907 24.6442 16.9964 24.666 16.7034C24.666 16.5811 24.666 16.4649 24.666 16.3488C24.6175 14.4569 24.8232 12.5672 25.2774 10.73C25.4337 10.2087 25.6384 9.70313 25.8888 9.21987C26.5913 10.9363 27.6717 12.4723 29.0497 13.7136C30.3664 15.0049 31.7809 16.1925 33.2806 17.2659C32.1275 19.4698 31.2114 21.7898 30.5476 24.1869ZM30.303 31.8966C30.2501 31.6425 30.2501 31.3803 30.303 31.1262C30.3712 30.5248 30.4877 29.9298 30.6515 29.3471L30.7799 28.8396C31.0245 27.7941 31.2507 26.9076 31.5258 26.0455C34.7625 28.1961 38.3322 29.7971 42.0908 30.7838C41.1422 31.4446 40.1607 32.0568 39.15 32.618C38.3156 33.1266 37.4252 33.5369 36.4965 33.8408L36.2886 33.902C36.028 33.9944 35.7569 34.054 35.4816 34.0793C35.2334 34.0607 34.9876 34.0177 34.7479 33.9509H34.7051C33.5519 33.6504 32.4453 33.1938 31.4158 32.5936L31.1957 32.4713C31.0636 32.4092 30.935 32.3398 30.8105 32.2634L30.7127 32.2084C30.5671 32.1224 30.4335 32.0175 30.3153 31.8966H30.303ZM40.0854 33.0827L40.4584 32.8809C41.5089 32.3237 42.5293 31.7114 43.5153 31.0467C44.2176 31.171 44.9298 31.2304 45.643 31.2241L44.7565 31.6459C43.8822 32.0678 42.9773 32.5019 42.0541 32.8687C40.8175 33.4202 39.5145 33.8086 38.1778 34.0243C38.832 33.7675 39.4679 33.419 40.0854 33.0827ZM49.8678 24.5782C51.5002 24.8411 53.5361 24.8961 54.7956 24.3642C53.6685 25.9058 52.2923 27.2489 50.7237 28.3383L50.6565 28.3811C49.8428 29.0143 48.9683 29.5653 48.0458 30.0257C47.0492 30.4843 45.6369 30.417 44.5608 30.2947C46.695 28.7678 48.4964 26.8229 49.8555 24.5782H49.8678ZM50.4302 23.4471C51.688 20.6707 52.1128 17.5889 51.653 14.5757C51.4296 13.1712 50.9039 11.832 50.1123 10.6505C49.5057 9.75013 48.6275 9.06685 47.6056 8.70018C49.1928 8.61783 50.7769 8.91328 52.2277 9.56225C54.3215 10.6321 55.9286 12.46 56.7215 14.6735C56.8918 15.0662 57.0189 15.4762 57.1006 15.8963C57.3753 17.7566 57.1473 19.6564 56.4403 21.3989L56.3547 21.6007C56.243 21.9043 56.0996 22.1953 55.9267 22.4688C55.0524 23.6916 52.4417 23.7711 50.4241 23.4287C50.4233 23.4352 50.4213 23.4414 50.418 23.4471H50.4302ZM23.8222 18.6782V18.8433C23.9323 19.5464 24.0301 20.28 24.1218 20.9893C24.278 22.3593 24.5045 23.7205 24.8005 25.0673V25.104C23.6137 25.6767 22.2773 25.8627 20.9792 25.6359C19.711 25.4801 18.474 25.1317 17.3109 24.6026C16.2568 24.1324 15.2748 23.5149 14.3945 22.7684C13.9592 22.4094 13.5691 21.9988 13.2328 21.5456C12.8623 21.0612 12.6261 20.4876 12.5481 19.8826C12.4441 18.5437 13.3184 17.8773 14.3089 17.5532C15.4868 17.2563 16.7246 17.2987 17.8795 17.6755C18.8652 17.9663 19.7966 18.4165 20.6369 19.0083C21.0408 19.2814 21.3979 19.618 21.6946 20.0049C22.0336 20.4447 22.2049 20.991 22.1776 21.5456C22.146 21.8626 22.0184 22.1623 21.8119 22.4049C21.6054 22.6474 21.3299 22.8211 21.022 22.9029C19.8665 23.2514 18.4053 22.7501 17.6166 22.2915C17.3204 22.132 17.052 21.9255 16.8217 21.6801C16.6803 21.5289 16.5728 21.3492 16.5064 21.1531C16.44 20.957 16.4162 20.749 16.4366 20.5429C16.4678 20.3181 16.5609 20.1064 16.7056 19.9315C16.5788 19.7988 16.4418 19.6761 16.2959 19.5647C16.1675 19.4608 16.0208 19.2835 15.8496 19.2651C15.6773 19.2591 15.5074 19.3063 15.363 19.4004C15.2185 19.4945 15.1066 19.6309 15.0426 19.7909C15.0121 20.0144 15.0284 20.2418 15.0905 20.4586C15.1526 20.6754 15.2591 20.877 15.4033 21.0504C15.6414 21.3603 15.9309 21.6271 16.2593 21.8391C16.9146 22.3161 17.63 22.7046 18.3869 22.9946C19.2643 23.3462 20.1991 23.5328 21.1443 23.5449C22.3671 23.5449 23.6266 23.2453 23.5899 22.0042C23.5396 21.3885 23.2808 20.8083 22.8562 20.3595C22.4969 19.9263 22.0863 19.5382 21.6334 19.204C20.695 18.513 19.6664 17.9535 18.5764 17.541C17.981 17.3081 17.3676 17.1241 16.7423 16.9907C14.7858 16.575 12.0467 16.63 11.2397 18.1279C10.7811 19.0083 11.2947 20.1333 11.7288 20.7814C12.9088 22.3593 14.4725 23.6094 16.2715 24.4131C17.5466 25.0561 18.8956 25.5406 20.2884 25.856C21.8351 26.245 23.4481 26.2909 25.0145 25.9905C25.2596 26.9336 25.6146 27.8447 26.0722 28.7051C23.4447 28.9223 20.8013 28.5742 18.3197 27.6841C16.1313 26.9399 14.0695 25.8657 12.2057 24.4987C11.3137 23.8545 10.5082 23.0983 9.80901 22.2487C9.00802 21.3686 8.4922 20.2667 8.32943 19.0878C8.11544 16.8318 9.68673 15.7068 11.3864 15.2116C11.6974 15.1231 12.014 15.0557 12.3341 15.0098C13.7995 14.8422 15.2829 14.9311 16.7178 15.2727C18.539 15.679 20.2846 16.3702 21.8902 17.3209C22.5748 17.7126 23.2216 18.167 23.8222 18.6782ZM25.1612 33.7491C23.0048 33.4398 20.8807 32.9365 18.8149 32.2451C15.1046 31.0303 11.6001 29.2595 8.42114 26.9932C6.09166 25.428 4.117 23.3908 2.6251 21.0137C2.10473 20.1416 1.73283 19.1891 1.52458 18.1952C1.29644 17.1698 1.37738 16.0998 1.75717 15.1204C2.13696 14.141 2.79856 13.2961 3.65836 12.6926C5.18387 11.6716 6.95525 11.0783 8.78798 10.9746C11.7424 10.766 14.7093 11.1314 17.5248 12.0506C19.6492 12.6869 21.699 13.5499 23.6388 14.6246V14.6735C23.6388 14.7652 23.6388 14.8875 23.6388 15.0343C23.6388 15.4745 23.5899 16.0797 23.6388 16.3732C23.6436 16.4281 23.6436 16.4834 23.6388 16.5383C23.6511 17.0352 23.6899 17.5312 23.755 18.024C22.3841 17.1128 20.9233 16.3445 19.3957 15.7312C17.5932 15.0097 15.6934 14.5605 13.7586 14.3984C11.4537 14.2211 9.39326 14.594 8.12156 15.6212C7.75683 15.8845 7.46009 16.2309 7.25595 16.6318C7.0518 17.0326 6.94613 17.4763 6.94767 17.9262C6.95066 18.8726 7.23127 19.7973 7.75472 20.5857C9.02031 22.6951 11.0685 24.303 13.2145 25.5931C15.49 26.9915 17.9634 28.0386 20.5513 28.699C22.5042 29.2324 24.5254 29.4734 26.5491 29.4143L26.6102 29.506C26.6778 29.562 26.7338 29.6305 26.7753 29.7078C26.8002 29.7548 26.8288 29.7998 26.8609 29.8423C27.7309 30.9107 28.7623 31.8369 29.9179 32.5875C30.0015 32.6433 30.0894 32.6924 30.1808 32.7342L30.3214 32.8015L30.8105 33.0766C31.2631 33.3417 31.7306 33.5806 32.2106 33.7919C29.8716 34.1258 27.496 34.1114 25.1612 33.7491Z" fill="white"/>
</svg>
